<svg width="53" height="17" viewBox="0 0 53 17" fill="none" xmlns="http://www.w3.org/2000/svg">
<path d="M22.8239 16.2692H18.5571L21.2259 0.780747H25.4923L22.8239 16.2692Z" fill="#15195A"/>
<path d="M38.2908 1.1594C37.4492 0.846017 36.1144 0.5 34.4639 0.5C30.2504 0.5 27.2832 2.60895 27.265 5.62412C27.23 7.8487 29.3894 9.08429 31.0044 9.82603C32.6552 10.584 33.2163 11.0787 33.2163 11.7543C33.1995 12.7919 31.8824 13.2702 30.654 13.2702C28.9505 13.2702 28.0378 13.0236 26.6507 12.4463L26.0889 12.1989L25.4918 15.6757C26.4925 16.1036 28.3362 16.4834 30.2504 16.5C34.7273 16.5 37.6419 14.4237 37.6765 11.2105C37.6935 9.44739 36.5533 8.09639 34.095 6.99242C32.6027 6.28374 31.6888 5.80589 31.6888 5.08078C31.7063 4.4216 32.4618 3.74643 34.1463 3.74643C35.5334 3.71336 36.5526 4.02631 37.3246 4.33947L37.7105 4.50394L38.2908 1.1594Z" fill="#15195A"/>
<path fill-rule="evenodd" clip-rule="evenodd" d="M45.9284 0.780747H49.2287L52.6709 16.2689H48.7203C48.7203 16.2689 48.3337 14.4894 48.2112 13.9456H42.7331C42.5746 14.3573 41.8376 16.2689 41.8376 16.2689H37.3606L43.6983 2.06583C44.1374 1.06063 44.9106 0.780747 45.9284 0.780747ZM45.6655 6.44863C45.6655 6.44863 44.3134 9.89238 43.962 10.7822H47.5085C47.3331 10.0078 46.5251 6.30037 46.5251 6.30037L46.2269 4.9658C46.1013 5.30946 45.9197 5.78195 45.7972 6.10062C45.7142 6.31665 45.6584 6.46199 45.6655 6.44863Z" fill="#15195A"/>
<path d="M0.0699852 0.780747H6.93473C7.86521 0.813377 8.62024 1.09348 8.86592 2.08269L10.3577 9.19825C10.3579 9.19895 10.3581 9.19965 10.3583 9.20035L10.8149 11.3424L14.9935 0.780747H19.5052L12.7986 16.2527H8.28667L4.48375 2.79472C3.17161 2.07467 1.67408 1.49557 -0.000244141 1.09369L0.0699852 0.780747Z" fill="#15195A"/>
</svg>
