<svg width="37" height="29" viewBox="0 0 37 29" fill="none" xmlns="http://www.w3.org/2000/svg">
<g clip-path="url(#clip0_4802_7822)">
<path fill-rule="evenodd" clip-rule="evenodd" d="M10.4516 25.4631V28.4254H9.7915V28.0658C9.58213 28.3325 9.26443 28.4999 8.8326 28.4999C7.9813 28.4999 7.31393 27.8494 7.31393 26.9442C7.31393 26.0398 7.9813 25.3886 8.8326 25.3886C9.26443 25.3886 9.58213 25.556 9.7915 25.8227V25.4631H10.4516ZM8.91474 25.9958C8.34333 25.9958 7.99365 26.4235 7.99365 26.9442C7.99365 27.4649 8.34333 27.8927 8.91474 27.8927C9.46071 27.8927 9.82929 27.4834 9.82929 26.9442C9.82929 26.4051 9.46071 25.9958 8.91474 25.9958ZM32.7585 26.9442C32.7585 26.4235 33.1082 25.9958 33.6796 25.9958C34.2263 25.9958 34.5941 26.4051 34.5941 26.9442C34.5941 27.4834 34.2263 27.8927 33.6796 27.8927C33.1082 27.8927 32.7585 27.4649 32.7585 26.9442ZM35.2172 24.2734V28.4254H34.5563V28.0658C34.347 28.3325 34.0293 28.4999 33.5974 28.4999C32.7461 28.4999 32.0788 27.8494 32.0788 26.9442C32.0788 26.0398 32.7461 25.3886 33.5974 25.3886C34.0293 25.3886 34.347 25.556 34.5563 25.8227V24.2734H35.2172ZM18.6455 25.9653C19.0708 25.9653 19.3441 26.2256 19.4139 26.6839H17.8385C17.909 26.2561 18.1751 25.9653 18.6455 25.9653ZM17.1464 26.9442C17.1464 26.0206 17.7687 25.3886 18.6585 25.3886C19.5091 25.3886 20.0936 26.0206 20.1002 26.9442C20.1002 27.0308 20.0936 27.1116 20.0871 27.1918H17.8327C17.9279 27.7253 18.3154 27.9175 18.7407 27.9175C19.0453 27.9175 19.3695 27.8054 19.624 27.6075L19.9475 28.0849C19.5789 28.3885 19.1602 28.4999 18.7029 28.4999C17.7942 28.4999 17.1464 27.8863 17.1464 26.9442ZM26.6293 26.9442C26.6293 26.4235 26.9789 25.9958 27.5503 25.9958C28.0963 25.9958 28.4649 26.4051 28.4649 26.9442C28.4649 27.4834 28.0963 27.8927 27.5503 27.8927C26.9789 27.8927 26.6293 27.4649 26.6293 26.9442ZM29.0872 25.4631V28.4254H28.4271V28.0658C28.217 28.3325 27.9 28.4999 27.4682 28.4999C26.6169 28.4999 25.9495 27.8494 25.9495 26.9442C25.9495 26.0398 26.6169 25.3886 27.4682 25.3886C27.9 25.3886 28.217 25.556 28.4271 25.8227V25.4631H29.0872ZM22.9012 26.9442C22.9012 27.843 23.5424 28.4999 24.5209 28.4999C24.9782 28.4999 25.2828 28.4006 25.6129 28.1466L25.2959 27.6259C25.048 27.7997 24.7878 27.8927 24.5013 27.8927C23.9743 27.8863 23.5868 27.5146 23.5868 26.9442C23.5868 26.3739 23.9743 26.0022 24.5013 25.9958C24.7878 25.9958 25.048 26.0887 25.2959 26.2625L25.6129 25.7418C25.2828 25.4879 24.9782 25.3886 24.5209 25.3886C23.5424 25.3886 22.9012 26.0455 22.9012 26.9442ZM30.6116 25.8227C30.7831 25.5624 31.031 25.3886 31.412 25.3886C31.5458 25.3886 31.7362 25.4134 31.8823 25.4694L31.6788 26.0767C31.5392 26.0206 31.3996 26.0022 31.2659 26.0022C30.834 26.0022 30.6181 26.2746 30.6181 26.7648V28.4254H29.9573V25.4631H30.6116V25.8227ZM13.7164 25.6986C13.3987 25.4943 12.9611 25.3886 12.4784 25.3886C11.7092 25.3886 11.2142 25.7482 11.2142 26.337C11.2142 26.8201 11.5827 27.118 12.2617 27.211L12.5736 27.2542C12.9357 27.3039 13.1065 27.3968 13.1065 27.5642C13.1065 27.7934 12.8651 27.9239 12.4144 27.9239C11.9571 27.9239 11.6271 27.7813 11.4046 27.6139L11.0935 28.1154C11.4555 28.3757 11.9128 28.4999 12.4079 28.4999C13.2846 28.4999 13.7928 28.097 13.7928 27.533C13.7928 27.0123 13.3929 26.7399 12.7321 26.647L12.421 26.603C12.1352 26.5661 11.9062 26.5108 11.9062 26.3122C11.9062 26.0951 12.1222 25.9653 12.4842 25.9653C12.8717 25.9653 13.2468 26.1079 13.4307 26.2193L13.7164 25.6986ZM21.4342 25.8227C21.605 25.5624 21.8529 25.3886 22.2339 25.3886C22.3676 25.3886 22.5581 25.4134 22.7042 25.4694L22.5007 26.0767C22.3611 26.0206 22.2215 26.0022 22.0878 26.0022C21.6559 26.0022 21.44 26.2746 21.44 26.7648V28.4254H20.7799V25.4631H21.4342V25.8227ZM16.6003 25.4631H15.5208V24.5643H14.8534V25.4631H14.2376V26.0518H14.8534V27.4032C14.8534 28.0906 15.1267 28.4999 15.9075 28.4999C16.194 28.4999 16.524 28.4133 16.7334 28.2708L16.5429 27.7189C16.3459 27.8302 16.13 27.8863 15.9584 27.8863C15.6284 27.8863 15.5208 27.6877 15.5208 27.3904V26.0518H16.6003V25.4631ZM6.73012 26.5661V28.4254H6.06274V26.7768C6.06274 26.2746 5.84683 25.9958 5.39609 25.9958C4.95772 25.9958 4.65311 26.2689 4.65311 26.7832V28.4254H3.98574V26.7768C3.98574 26.2746 3.76401 25.9958 3.32564 25.9958C2.87418 25.9958 2.58193 26.2689 2.58193 26.7832V28.4254H1.91528V25.4631H2.57611V25.8284C2.82402 25.4815 3.14098 25.3886 3.46522 25.3886C3.92904 25.3886 4.25909 25.5872 4.46846 25.9156C4.74835 25.4999 5.14819 25.3822 5.53568 25.3886C6.27284 25.395 6.73012 25.866 6.73012 26.5661Z" fill="#231F20"/>
<path d="M23.5024 20.43H13.4976V2.88574H23.5024V20.43Z" fill="#FF5F00"/>
<path d="M14.1324 11.6577C14.1324 8.09875 15.8401 4.92856 18.4994 2.88556C16.5547 1.39162 14.1004 0.499935 11.4331 0.499935C5.11847 0.499935 -0.000244141 5.49535 -0.000244141 11.6577C-0.000244141 17.82 5.11847 22.8154 11.4331 22.8154C14.1004 22.8154 16.5547 21.9237 18.4994 20.4298C15.8401 18.3868 14.1324 15.2166 14.1324 11.6577Z" fill="#EB001B"/>
<path d="M36.9999 11.6577C36.9999 17.82 31.8812 22.8154 25.5666 22.8154C22.8992 22.8154 20.4449 21.9237 18.4995 20.4298C21.1596 18.3868 22.8672 15.2166 22.8672 11.6577C22.8672 8.09875 21.1596 4.92856 18.4995 2.88556C20.4449 1.39162 22.8992 0.499935 25.5666 0.499935C31.8812 0.499935 36.9999 5.49535 36.9999 11.6577Z" fill="#F79E1B"/>
</g>
<defs>
<clipPath id="clip0_4802_7822">
<rect width="37" height="28" fill="white" transform="translate(-0.000244141 0.5)"/>
</clipPath>
</defs>
</svg>
