<svg width="61" height="19" viewBox="0 0 61 19" fill="none" xmlns="http://www.w3.org/2000/svg">
<g clip-path="url(#clip0_4802_7830)">
<path fill-rule="evenodd" clip-rule="evenodd" d="M19.0261 4.25125C19.5343 4.25125 19.9728 4.34119 20.3416 4.51834C20.712 4.69705 21.0182 4.93778 21.2633 5.24053C21.5052 5.54483 21.6853 5.90069 21.8016 6.30811C21.9171 6.71707 21.9751 7.15628 21.9751 7.62688C21.9751 8.34906 21.8415 9.0321 21.5714 9.67559C21.3016 10.3199 20.9352 10.8788 20.4693 11.3556C20.0037 11.8321 19.454 12.2073 18.8202 12.4845C18.1871 12.7624 17.4991 12.9008 16.7603 12.9008C16.6648 12.9008 16.4968 12.8985 16.2596 12.8931C16.0223 12.8884 15.7494 12.8644 15.444 12.8233C15.1367 12.781 14.8117 12.7182 14.4684 12.6341C14.1254 12.5515 13.7996 12.4356 13.4927 12.2887L16.2357 0.87718L18.6925 0.5L17.7106 4.54935C17.9208 4.45554 18.1326 4.38267 18.3441 4.32995C18.5567 4.27878 18.7833 4.25125 19.0261 4.25125ZM16.9655 10.9715C17.3355 10.9715 17.6839 10.8816 18.0116 10.7044C18.3401 10.5276 18.6236 10.2885 18.8609 9.99036C19.0981 9.69149 19.2864 9.35424 19.4235 8.97744C19.5605 8.60104 19.6298 8.20835 19.6298 7.79938C19.6298 7.29738 19.5452 6.90547 19.3761 6.62249C19.207 6.34028 18.8945 6.19879 18.4404 6.19879C18.2916 6.19879 18.0997 6.2267 17.8621 6.27671C17.6236 6.33059 17.4103 6.44107 17.2188 6.60737L16.173 10.9083C16.2361 10.9188 16.2921 10.9296 16.3394 10.9393C16.386 10.9498 16.4373 10.9575 16.4886 10.963C16.543 10.9692 16.6049 10.9719 16.6797 10.9719C16.7545 10.9719 16.8492 10.9715 16.9655 10.9715Z" fill="#4D4D4D"/>
<path fill-rule="evenodd" clip-rule="evenodd" d="M24.5239 12.6818H22.1771L24.159 4.42529H26.5218L24.5239 12.6818ZM25.6656 3.42013C25.3379 3.42013 25.0411 3.32322 24.7776 3.13017C24.5118 2.9379 24.3802 2.64174 24.3802 2.24285C24.3802 2.02344 24.4252 1.81722 24.5145 1.62339C24.6049 1.42957 24.7236 1.26211 24.872 1.12061C25.0203 0.979899 25.1918 0.867481 25.3868 0.782587C25.583 0.699243 25.7916 0.657765 26.014 0.657765C26.3413 0.657765 26.6369 0.754289 26.9012 0.947724C27.1647 1.14194 27.2974 1.4381 27.2974 1.83466C27.2974 2.05484 27.2528 2.26185 27.1624 2.45567C27.0727 2.64949 26.9545 2.81618 26.8061 2.95845C26.6593 3.09916 26.4858 3.21119 26.2912 3.29531C26.0951 3.37982 25.8876 3.42013 25.6656 3.42013Z" fill="#4D4D4D"/>
<path fill-rule="evenodd" clip-rule="evenodd" d="M28.5777 2.36922L31.0357 1.99204L30.432 4.4253H33.0642L32.5889 6.33988H29.9724L29.2754 9.22823C29.2112 9.46896 29.1748 9.6938 29.1646 9.90235C29.1533 10.1125 29.1799 10.2927 29.2433 10.4443C29.3064 10.5962 29.4199 10.7133 29.5844 10.7967C29.748 10.8808 29.9825 10.923 30.2895 10.923C30.5424 10.923 30.7891 10.8994 31.0275 10.8517C31.2644 10.8056 31.5048 10.7404 31.7479 10.6555L31.9229 12.4461C31.6058 12.5612 31.2624 12.6605 30.8924 12.7438C30.5221 12.8279 30.0832 12.8686 29.5761 12.8686C28.8471 12.8686 28.2817 12.762 27.8793 12.5484C27.4772 12.3333 27.1929 12.0398 27.0226 11.6681C26.8546 11.2979 26.7799 10.8707 26.801 10.3896C26.8229 9.90739 26.8961 9.40035 27.0226 8.86656L28.5777 2.36922Z" fill="#4D4D4D"/>
<path fill-rule="evenodd" clip-rule="evenodd" d="M32.9609 9.38602C32.9609 8.67468 33.0771 8.00445 33.3097 7.37607C33.5415 6.7477 33.8758 6.1984 34.3097 5.72663C34.7419 5.25719 35.2681 4.88544 35.8875 4.61293C36.5042 4.34119 37.1944 4.20435 37.9555 4.20435C38.4316 4.20435 38.8572 4.24854 39.2315 4.33809C39.6074 4.42802 39.9476 4.5447 40.255 4.69084L39.4457 6.51317C39.2343 6.42827 39.0146 6.35346 38.7879 6.28523C38.5608 6.21623 38.2836 6.18289 37.9559 6.18289C37.1729 6.18289 36.5535 6.44998 36.0927 6.98261C35.6338 7.51601 35.4024 8.23354 35.4024 9.13405C35.4024 9.66784 35.5187 10.0989 35.752 10.4292C35.9842 10.7591 36.4129 10.923 37.0358 10.923C37.3432 10.923 37.6396 10.8912 37.9238 10.8292C38.21 10.7664 38.4626 10.6877 38.6853 10.5939L38.8603 12.4616C38.5636 12.576 38.2363 12.6791 37.8772 12.769C37.5174 12.8562 37.0891 12.9008 36.5922 12.9008C35.9368 12.9008 35.3817 12.8062 34.9279 12.619C34.4737 12.429 34.0982 12.1767 33.8026 11.8573C33.5055 11.5371 33.2921 11.163 33.1601 10.7339C33.0278 10.3063 32.9609 9.85584 32.9609 9.38602Z" fill="#4D4D4D"/>
<path fill-rule="evenodd" clip-rule="evenodd" d="M43.3848 12.9016C42.8245 12.9016 42.3383 12.8175 41.9256 12.6504C41.5141 12.4829 41.1735 12.2484 40.9037 11.9441C40.6339 11.6413 40.4315 11.2824 40.2933 10.8691C40.1547 10.4563 40.0886 9.99849 40.0886 9.49726C40.0886 8.86811 40.1907 8.23935 40.3967 7.61214C40.6018 6.98415 40.9061 6.41974 41.3093 5.91774C41.7091 5.41496 42.202 5.00406 42.783 4.68347C43.3629 4.3656 44.0304 4.2055 44.7798 4.2055C45.3295 4.2055 45.8138 4.29001 46.232 4.45709C46.6482 4.62455 46.9911 4.86063 47.2625 5.16338C47.5307 5.46768 47.7346 5.82509 47.8717 6.2391C48.0099 6.65116 48.0776 7.11014 48.0776 7.61175C48.0776 8.23896 47.977 8.86773 47.7773 9.49688C47.5773 10.1225 47.2809 10.6885 46.8893 11.1913C46.4986 11.6933 46.01 12.1038 45.4231 12.4232C44.8362 12.7419 44.1561 12.9016 43.3848 12.9016ZM44.5574 6.18367C44.2094 6.18367 43.902 6.28368 43.6385 6.48138C43.3742 6.68102 43.1522 6.93222 42.9733 7.23497C42.7924 7.53888 42.6581 7.87148 42.5677 8.23161C42.478 8.59328 42.4338 8.9348 42.4338 9.25965C42.4338 9.78336 42.5191 10.1912 42.6867 10.485C42.857 10.7769 43.1624 10.9238 43.6068 10.9238C43.956 10.9238 44.2618 10.8246 44.5269 10.6249C44.7896 10.4268 45.0116 10.1757 45.1921 9.87213C45.3718 9.56976 45.5073 9.23639 45.5977 8.87549C45.6866 8.51498 45.7316 8.17152 45.7316 7.84745C45.7316 7.3249 45.6466 6.91632 45.4775 6.62288C45.3084 6.3302 45.0014 6.18367 44.5574 6.18367Z" fill="#4D4D4D"/>
<path fill-rule="evenodd" clip-rule="evenodd" d="M50.6343 12.6818H48.2859L50.2678 4.42529H52.6319L50.6343 12.6818ZM51.7744 3.42013C51.4471 3.42013 51.1503 3.32322 50.8872 3.13017C50.6225 2.9379 50.4898 2.64174 50.4898 2.24285C50.4898 2.02344 50.5352 1.81722 50.6249 1.62339C50.7146 1.42957 50.8336 1.26211 50.982 1.12061C51.1296 0.979899 51.3026 0.867481 51.4972 0.782587C51.6922 0.699243 51.9009 0.657765 52.1229 0.657765C52.451 0.657765 52.7473 0.754289 53.0112 0.947724C53.2755 1.14194 53.4086 1.4381 53.4086 1.83466C53.4086 2.05484 53.3613 2.26185 53.2724 2.45567C53.1835 2.64949 53.0649 2.81618 52.9169 2.95845C52.7681 3.09916 52.5974 3.21119 52.4024 3.29531C52.2059 3.37982 51.9976 3.42013 51.7744 3.42013Z" fill="#4D4D4D"/>
<path fill-rule="evenodd" clip-rule="evenodd" d="M54.3217 4.80171C54.4998 4.75015 54.6987 4.68813 54.9152 4.62068C55.1325 4.55323 55.3749 4.49043 55.6458 4.43383C55.914 4.37568 56.2163 4.32878 56.5491 4.29156C56.8819 4.25435 57.2605 4.23613 57.6821 4.23613C58.9193 4.23613 59.7729 4.59277 60.2439 5.30448C60.7141 6.0162 60.7959 6.98997 60.4901 8.22385L59.4111 12.6818H57.049L58.0952 8.31766C58.1586 8.04514 58.2091 7.78154 58.2459 7.52415C58.2835 7.26946 58.2812 7.04463 58.2377 6.85003C58.1966 6.65776 58.0979 6.50076 57.9456 6.37865C57.7906 6.25809 57.5564 6.1984 57.2389 6.1984C56.9331 6.1984 56.6219 6.23096 56.304 6.29376L54.7657 12.6818H52.4028L54.3217 4.80171Z" fill="#4D4D4D"/>
<path fill-rule="evenodd" clip-rule="evenodd" d="M25.9685 17.6023L25.508 18.4303H25.01C25.3608 17.8039 25.703 17.2271 26.0366 16.6999C26.3702 16.1727 26.6998 15.6749 27.0256 15.2067H27.4719C27.5189 15.4392 27.562 15.6745 27.6011 15.9114C27.6403 16.1486 27.6786 16.3975 27.7162 16.658C27.7538 16.9185 27.7898 17.1949 27.8243 17.4864C27.8587 17.7779 27.8948 18.0923 27.9324 18.4307H27.4719C27.4563 18.2912 27.4422 18.1508 27.4296 18.0097C27.4171 17.8686 27.403 17.7329 27.3873 17.6027L25.9685 17.6023ZM27.3451 17.2391C27.32 16.9883 27.291 16.7382 27.2581 16.4902C27.2253 16.2421 27.1869 15.9862 27.143 15.7226C27.0334 15.8808 26.8972 16.0851 26.7343 16.3343C26.5714 16.5843 26.3866 16.8855 26.1799 17.2391H27.3451Z" fill="#4D4D4D"/>
<path fill-rule="evenodd" clip-rule="evenodd" d="M29.5975 18.4997C29.3939 18.4997 29.2146 18.4702 29.0595 18.4113C28.9045 18.3524 28.7753 18.2687 28.6719 18.1601C28.5686 18.052 28.491 17.9206 28.4394 17.7671C28.3877 17.6135 28.3618 17.4407 28.3618 17.2484C28.3618 16.9693 28.4065 16.7026 28.4957 16.4483C28.585 16.1944 28.7119 15.9695 28.8763 15.7742C29.0407 15.5788 29.2389 15.423 29.4706 15.3063C29.7024 15.19 29.9604 15.1318 30.2459 15.1318C30.4902 15.1318 30.6852 15.1566 30.8308 15.2063C30.9764 15.2559 31.0806 15.3024 31.1432 15.3458L30.9553 15.718C30.8829 15.6714 30.7854 15.6272 30.6617 15.5854C30.5379 15.5439 30.3915 15.5226 30.2224 15.5226C30.0063 15.5226 29.8121 15.573 29.6398 15.6742C29.4675 15.7749 29.3219 15.9052 29.2028 16.0649C29.0838 16.2246 28.993 16.4045 28.9303 16.6045C28.8677 16.8045 28.8364 17.0022 28.8364 17.1976C28.8364 17.8023 29.101 18.1047 29.6304 18.1047C29.7431 18.1047 29.8442 18.0966 29.9334 18.0811C30.0227 18.0659 30.1018 18.0477 30.1707 18.0276C30.2396 18.0074 30.3007 17.9853 30.3539 17.9601C30.4072 17.9353 30.4542 17.9136 30.4949 17.895L30.5513 18.2857C30.5137 18.3074 30.4643 18.3307 30.4033 18.3555C30.3422 18.3803 30.2709 18.4036 30.1895 18.4257C30.108 18.4474 30.0172 18.4652 29.917 18.4792C29.8168 18.4931 29.7103 18.4997 29.5975 18.4997Z" fill="#4D4D4D"/>
<path fill-rule="evenodd" clip-rule="evenodd" d="M32.2372 18.4997C32.0336 18.4997 31.8543 18.4702 31.6992 18.4113C31.5442 18.3524 31.415 18.2687 31.3116 18.1601C31.2082 18.052 31.1307 17.9206 31.079 17.7671C31.0274 17.6135 31.0015 17.4407 31.0015 17.2484C31.0015 16.9693 31.0462 16.7026 31.1354 16.4483C31.2247 16.1944 31.3515 15.9695 31.516 15.7742C31.6804 15.5788 31.8785 15.423 32.1103 15.3063C32.3421 15.19 32.6001 15.1318 32.8855 15.1318C33.1298 15.1318 33.3248 15.1566 33.4705 15.2063C33.6161 15.2559 33.7203 15.3024 33.7829 15.3458L33.595 15.718C33.5225 15.6714 33.4251 15.6272 33.3013 15.5854C33.1776 15.5439 33.0312 15.5226 32.862 15.5226C32.6459 15.5226 32.4517 15.573 32.2795 15.6742C32.1072 15.7749 31.9615 15.9052 31.8425 16.0649C31.7235 16.2246 31.6327 16.4045 31.57 16.6045C31.5074 16.8045 31.476 17.0022 31.476 17.1976C31.476 17.8023 31.7407 18.1047 32.2701 18.1047C32.3828 18.1047 32.4838 18.0966 32.5731 18.0811C32.6624 18.0659 32.7415 18.0477 32.8104 18.0276C32.8793 18.0074 32.9404 17.9853 32.9936 17.9601C33.0468 17.9353 33.0938 17.9136 33.1345 17.895L33.1909 18.2857C33.1533 18.3074 33.104 18.3307 33.0429 18.3555C32.9819 18.3803 32.9106 18.4036 32.8292 18.4257C32.7477 18.4474 32.6569 18.4652 32.5567 18.4792C32.4564 18.4931 32.3499 18.4997 32.2372 18.4997Z" fill="#4D4D4D"/>
<path fill-rule="evenodd" clip-rule="evenodd" d="M33.4987 18.4299L34.2786 15.2063H36.2002L36.1109 15.5831H34.6404L34.4054 16.5553H35.7116L35.6223 16.9228H34.3209L34.0437 18.0531H35.6223L35.533 18.4299H33.4987Z" fill="#4D4D4D"/>
<path fill-rule="evenodd" clip-rule="evenodd" d="M37.5603 15.1737C37.9393 15.1737 38.2251 15.245 38.4178 15.3877C38.6104 15.5303 38.7067 15.7381 38.7067 16.011C38.7067 16.2219 38.6668 16.4045 38.5869 16.5576C38.507 16.7111 38.3935 16.8375 38.2463 16.9371C38.0991 17.0364 37.9221 17.1096 37.7154 17.1577C37.5087 17.2058 37.2784 17.2302 37.0247 17.2302H36.7006L36.4093 18.4303H35.9535L36.724 15.2485C36.8556 15.2175 36.995 15.1974 37.1422 15.1881C37.2894 15.1784 37.4288 15.1737 37.5603 15.1737ZM37.504 15.5552C37.2816 15.5552 37.1469 15.5614 37.0999 15.5738L36.7898 16.853H37.0858C37.2174 16.853 37.3521 16.8418 37.4899 16.8181C37.6277 16.7949 37.7514 16.7538 37.861 16.6952C37.9707 16.6363 38.0607 16.5549 38.1312 16.4506C38.2017 16.3467 38.2369 16.213 38.2369 16.0486C38.2369 15.8719 38.1711 15.7455 38.0396 15.6691C37.908 15.5932 37.7295 15.5552 37.504 15.5552Z" fill="#4D4D4D"/>
<path fill-rule="evenodd" clip-rule="evenodd" d="M41.4861 15.2063L41.3969 15.5831H40.4149L39.7243 18.4299H39.2686L39.9592 15.5831H38.9773L39.0665 15.2063H41.4861Z" fill="#4D4D4D"/>
<path fill-rule="evenodd" clip-rule="evenodd" d="M41.0633 18.4299L41.8432 15.2063H43.7648L43.6756 15.5831H42.205L41.9701 16.5553H43.2762L43.187 16.9228H41.8855L41.6083 18.0531H43.187L43.0977 18.4299H41.0633Z" fill="#4D4D4D"/>
<path fill-rule="evenodd" clip-rule="evenodd" d="M45.1179 15.1737C45.6003 15.1737 45.9605 15.2861 46.1985 15.511C46.4366 15.7358 46.5556 16.0389 46.5556 16.4204C46.5556 16.6871 46.5133 16.9437 46.4288 17.1899C46.3442 17.4368 46.2126 17.6543 46.0341 17.8438C45.8556 18.0326 45.6277 18.1834 45.3505 18.295C45.0733 18.4067 44.7421 18.4625 44.3568 18.4625C44.2253 18.4625 44.0827 18.4563 43.9293 18.4439C43.7758 18.4315 43.6411 18.4098 43.5252 18.3788L44.2816 15.2481C44.4132 15.2171 44.5526 15.197 44.6998 15.1877C44.847 15.1784 44.9864 15.1737 45.1179 15.1737ZM45.0804 15.5552C44.8454 15.5552 44.7045 15.5614 44.6575 15.5738L44.0561 18.0578C44.0812 18.064 44.1235 18.0694 44.183 18.0741C44.2425 18.0787 44.3396 18.0811 44.4743 18.0811C44.7217 18.0811 44.9449 18.0404 45.1438 17.9582C45.3427 17.876 45.511 17.7613 45.6488 17.6136C45.7867 17.4663 45.8932 17.2914 45.9683 17.0883C46.0435 16.8852 46.0811 16.6627 46.0811 16.4208C46.0811 16.1479 46.0012 15.9355 45.8415 15.7831C45.6817 15.6315 45.428 15.5552 45.0804 15.5552Z" fill="#4D4D4D"/>
<path fill-rule="evenodd" clip-rule="evenodd" d="M50.0652 18.4299H49.6095L49.9713 16.9321H48.4631L48.1014 18.4299H47.6456L48.4255 15.2063H48.8813L48.5524 16.5553H50.0609L50.3898 15.2063H50.8456L50.0652 18.4299Z" fill="#4D4D4D"/>
<path fill-rule="evenodd" clip-rule="evenodd" d="M50.7841 18.4299L51.564 15.2063H53.4856L53.3959 15.5831H51.9254L51.6905 16.5553H52.9966L52.9069 16.9228H51.6055L51.3287 18.0531H52.9069L52.8173 18.4299H50.7841Z" fill="#4D4D4D"/>
<path fill-rule="evenodd" clip-rule="evenodd" d="M54.8458 15.1737C55.1934 15.1737 55.4691 15.2435 55.6727 15.383C55.8763 15.5226 55.9777 15.7273 55.9777 15.9967C55.9777 16.2696 55.8974 16.4987 55.7361 16.6832C55.5748 16.8677 55.3485 17.0003 55.0572 17.0805C55.0948 17.1461 55.1386 17.229 55.1887 17.3298C55.2389 17.4306 55.2905 17.5422 55.3438 17.6647C55.3966 17.7868 55.4487 17.9144 55.4988 18.0458C55.549 18.178 55.5924 18.3055 55.6304 18.4296H55.1653C55.1218 18.3117 55.076 18.1923 55.029 18.0714C54.9824 17.9504 54.9343 17.8341 54.8861 17.7225C54.8372 17.6108 54.789 17.5062 54.7401 17.4085C54.6919 17.3108 54.6469 17.2244 54.6062 17.1503C54.5654 17.1534 54.5247 17.1557 54.484 17.1573C54.4433 17.1588 54.403 17.1596 54.3618 17.1596H54.0001L53.6947 18.4296H53.2389L54.0099 15.2478C54.1414 15.2167 54.2804 15.1966 54.428 15.1873C54.5748 15.1784 54.7142 15.1737 54.8458 15.1737ZM54.7894 15.5552C54.567 15.5552 54.4323 15.5614 54.3849 15.5738L54.089 16.7929H54.3665C54.495 16.7929 54.6265 16.7836 54.7612 16.765C54.8959 16.7464 55.0188 16.71 55.1296 16.6557C55.2408 16.6014 55.3317 16.5254 55.4021 16.4278C55.4726 16.3301 55.5082 16.2006 55.5082 16.0393C55.5082 15.8657 55.4417 15.7416 55.3086 15.6672C55.1754 15.5924 55.002 15.5552 54.7894 15.5552Z" fill="#4D4D4D"/>
<path fill-rule="evenodd" clip-rule="evenodd" d="M56.0125 18.4299L56.7924 15.2063H58.714L58.6244 15.5831H57.1538L56.9189 16.5553H58.225L58.1354 16.9228H56.8339L56.5571 18.0531H58.1354L58.0457 18.4299H56.0125Z" fill="#4D4D4D"/>
<path fill-rule="evenodd" clip-rule="evenodd" d="M6.93295 12.901C10.3914 12.901 13.195 10.1252 13.195 6.70099C13.195 3.27682 10.3914 0.500977 6.93295 0.500977C3.47451 0.500977 0.670898 3.27682 0.670898 6.70099C0.670898 10.1252 3.47451 12.901 6.93295 12.901ZM9.69397 5.81716C9.81848 4.99187 9.18382 4.5484 8.3162 4.25224L8.59771 3.13388L7.91058 2.96409L7.63651 4.05299C7.45602 4.00841 7.27044 3.96615 7.08564 3.92467L7.36166 2.8288L6.67493 2.65901L6.39303 3.77698C6.24347 3.74326 6.09665 3.70992 5.95413 3.67464L5.95491 3.67115L5.00703 3.43702L4.82419 4.16385C4.82419 4.16385 5.33396 4.27937 5.32338 4.28674C5.60176 4.35574 5.65227 4.53793 5.64365 4.68252L5.32299 5.95594C5.34218 5.96059 5.36684 5.96718 5.39464 5.97881C5.37154 5.97261 5.34727 5.9668 5.32182 5.96059L4.87235 7.74532C4.83829 7.82866 4.75176 7.95426 4.55717 7.90658C4.56422 7.91627 4.05759 7.78331 4.05759 7.78331L3.71618 8.56248L4.61042 8.78305C4.77682 8.82414 4.94008 8.86755 5.10022 8.90826L4.81597 10.039L5.50231 10.2088L5.78421 9.09006C5.97175 9.14007 6.15381 9.18697 6.33195 9.23078L6.05123 10.3441L6.73836 10.5139L7.02299 9.38545C8.19522 9.60486 9.07654 9.51647 9.44731 8.46673C9.74644 7.62127 9.43244 7.134 8.81578 6.81613C9.26525 6.71379 9.60353 6.42151 9.69397 5.81716ZM8.12356 7.99766C7.91097 8.84273 6.47407 8.38569 6.00816 8.27095L6.38559 6.77308C6.8515 6.88821 8.34556 7.11615 8.12356 7.99766ZM8.33616 5.80514C8.14236 6.57346 6.94625 6.1831 6.55825 6.08774L6.90044 4.72865C7.28844 4.82479 8.5378 5.00349 8.33616 5.80514Z" fill="#F7931A"/>
</g>
<defs>
<clipPath id="clip0_4802_7830">
<rect width="60" height="18" fill="white" transform="translate(0.670898 0.5)"/>
</clipPath>
</defs>
</svg>
