<svg width="63" height="21" viewBox="0 0 63 21" fill="none" xmlns="http://www.w3.org/2000/svg">
<g clip-path="url(#clip0_4802_7847)">
<path d="M8.9884 19.0359C13.5994 19.0359 17.3374 15.2979 17.3374 10.6869C17.3374 6.07586 13.5994 2.33789 8.9884 2.33789C4.37738 2.33789 0.639404 6.07586 0.639404 10.6869C0.639404 15.2979 4.37738 19.0359 8.9884 19.0359Z" fill="#26A17B"/>
<path d="M9.87826 11.4578V11.4564C9.82054 11.4604 9.52256 11.4779 8.85947 11.4779C8.32927 11.4779 7.95746 11.4631 7.82591 11.4564V11.4578C5.78699 11.3678 4.26618 11.0135 4.26618 10.588C4.26618 10.1638 5.78833 9.80809 7.82591 9.71816V11.1047C7.9588 11.1141 8.34135 11.137 8.86887 11.137C9.50242 11.137 9.8192 11.1101 9.87826 11.1047V9.7195C11.9132 9.81078 13.4299 10.1651 13.4299 10.5893C13.4299 11.0135 11.9118 11.3678 9.87826 11.4591M9.87826 9.57588V8.33561H12.7172V6.44434H4.98833V8.33561H7.82725V9.57588C5.51987 9.68192 3.78564 10.1383 3.78564 10.6859C3.78564 11.2336 5.52121 11.69 7.82725 11.7974V15.7732H9.8796V11.7974C12.183 11.6913 13.9145 11.2349 13.9145 10.6873C13.9145 10.141 12.183 9.68326 9.8796 9.57722" fill="white"/>
<path d="M24.4294 6.96128V8.96665H26.3784V10.4714H24.416V13.5224C24.416 14.1962 24.7878 14.525 25.3328 14.525C25.6053 14.525 25.9207 14.4391 26.1784 14.3103L26.6657 15.8002C26.165 16.0002 25.7489 16.0861 25.2187 16.1009C23.6858 16.1586 22.6831 15.2848 22.6831 13.5224V10.4714H21.365V8.96665H22.6831V7.14786L24.4294 6.96128ZM58.0308 8.87269L58.1596 9.6888C58.7046 8.81498 59.4348 8.68612 60.1516 8.68612C60.8818 8.68612 61.5838 8.97202 61.9704 9.3586L61.1824 10.8767C60.8241 10.576 60.4952 10.4177 59.922 10.4177C59.0053 10.4177 58.1596 10.9049 58.1596 12.2083V15.9331H56.412V8.87001L58.0308 8.87269ZM53.7475 11.5801C53.6334 10.6633 52.9167 10.2042 51.914 10.2042C50.969 10.2042 50.1945 10.6633 49.9368 11.5801H53.7475ZM49.9086 13.0271C50.0227 13.9009 50.7824 14.5318 52.0147 14.5318C52.6589 14.5318 53.5046 14.2875 53.9059 13.8727L55.0227 14.976C54.2777 15.7492 53.0603 16.1224 51.9851 16.1224C49.5502 16.1224 48.1019 14.6177 48.1019 12.3546C48.1019 10.2056 49.5636 8.65793 51.8563 8.65793C54.22 8.65793 55.6965 10.1197 55.424 13.0271H49.9086ZM42.2012 5.90625V9.83108C42.8321 9.01498 43.6053 8.77068 44.4079 8.77068C46.4133 8.77068 47.3019 10.1318 47.3019 12.2096V15.9344H45.5543V12.2244C45.5543 10.9344 44.8804 10.3908 43.9489 10.3908C42.9167 10.3908 42.2012 11.2646 42.2012 12.325V15.9358H40.4536V5.90759L42.2012 5.90625ZM37.5596 6.88075V8.88612H39.5086V10.3908H37.5462V13.4418C37.5462 14.1156 37.9194 14.4445 38.463 14.4445C38.7355 14.4445 39.0509 14.3586 39.3086 14.2297L39.7959 15.7197C39.2952 15.9197 38.8791 16.0056 38.3489 16.0203C36.816 16.0781 35.8133 15.2029 35.8133 13.4418V10.3908H34.4952V8.88612H35.8133V7.06732L37.5596 6.88075ZM32.7314 11.5801C32.6173 10.6633 31.9006 10.2042 30.8979 10.2042C29.9529 10.2042 29.1784 10.6633 28.9207 11.5801H32.7314ZM28.8925 13.0271C29.0066 13.9009 29.7663 14.5318 30.9985 14.5318C31.6428 14.5318 32.4885 14.2875 32.8898 13.8727L34.0066 14.976C33.2616 15.7492 32.0442 16.1224 30.969 16.1224C28.5328 16.1224 27.0858 14.6177 27.0858 12.3546C27.0858 10.2056 28.5475 8.65793 30.8388 8.65793C33.2026 8.65793 34.6777 10.1197 34.4066 13.0271H28.8925Z" fill="#5B5A5D"/>
</g>
<defs>
<clipPath id="clip0_4802_7847">
<rect width="62.6846" height="20" fill="white" transform="translate(0.0400391 0.5)"/>
</clipPath>
</defs>
</svg>
