<svg width="66" height="17" viewBox="0 0 66 17" fill="none" xmlns="http://www.w3.org/2000/svg">
<g clip-path="url(#clip0_4802_7814)">
<path fill-rule="evenodd" clip-rule="evenodd" d="M25.2841 7.54826C25.0864 8.83909 24.0945 8.83909 23.1353 8.83909H22.5895L22.9722 6.42907C22.9955 6.28345 23.1218 6.17614 23.2701 6.17614H23.5203C24.1734 6.17614 24.7903 6.17614 25.1082 6.54592C25.2986 6.76717 25.3561 7.09509 25.2841 7.54826ZM24.8667 4.18066H21.2486C21.0013 4.18066 20.7908 4.35957 20.7522 4.60248L19.2891 13.8232C19.2603 14.005 19.4018 14.1695 19.587 14.1695H21.3145C21.5618 14.1695 21.7725 13.9906 21.8111 13.7479L22.2059 11.2603C22.2443 11.0174 22.455 10.8384 22.7023 10.8384H23.8472C26.2301 10.8384 27.6056 9.6921 27.9651 7.42026C28.1269 6.42664 27.9716 5.64588 27.5034 5.09929C26.9888 4.4984 26.0769 4.18066 24.8667 4.18066Z" fill="#27346A"/>
<path fill-rule="evenodd" clip-rule="evenodd" d="M33.2659 10.8585C33.0986 11.8424 32.3127 12.5029 31.3104 12.5029C30.808 12.5029 30.4057 12.3423 30.1472 12.0381C29.8909 11.7365 29.7945 11.307 29.8756 10.8286C30.0317 9.85355 30.8301 9.17169 31.8171 9.17169C32.3091 9.17169 32.7085 9.33396 32.9722 9.64087C33.2376 9.95004 33.3418 10.3825 33.2659 10.8585ZM35.6802 7.50705H33.9478C33.7994 7.50705 33.673 7.6142 33.6499 7.76014L33.5737 8.24159L33.4525 8.06705C33.0774 7.52579 32.2413 7.34495 31.4064 7.34495C29.4924 7.34495 27.8574 8.78656 27.5392 10.8085C27.3735 11.8172 27.6086 12.7811 28.1841 13.4539C28.7127 14.0721 29.4672 14.3294 30.366 14.3294C31.9088 14.3294 32.7644 13.3443 32.7644 13.3443L32.687 13.8228C32.6581 14.0048 32.7995 14.1695 32.9849 14.1695H34.5451C34.7924 14.1695 35.003 13.9908 35.0415 13.7479L35.9781 7.85339C36.007 7.67141 35.8656 7.50705 35.6802 7.50705Z" fill="#27346A"/>
<path fill-rule="evenodd" clip-rule="evenodd" d="M44.907 7.50705H43.1657C42.9992 7.50705 42.8434 7.58915 42.7499 7.72604L40.348 11.2423L39.3299 7.86341C39.2664 7.65202 39.0706 7.50705 38.8485 7.50705H37.1368C36.9301 7.50705 36.7846 7.70907 36.8512 7.9035L38.7686 13.4974L36.9652 16.0266C36.8236 16.2251 36.9665 16.4997 37.2112 16.4997H38.9509C39.1158 16.4997 39.2701 16.4194 39.3641 16.2846L45.155 7.97768C45.2935 7.77889 45.1504 7.50705 44.907 7.50705Z" fill="#27346A"/>
<path fill-rule="evenodd" clip-rule="evenodd" d="M51.0886 7.54826C50.8908 8.83909 49.899 8.83909 48.9396 8.83909H48.3938L48.7767 6.42907C48.7998 6.28345 48.9261 6.17614 49.0746 6.17614H49.3248C49.9777 6.17614 50.5946 6.17614 50.9126 6.54592C51.1029 6.76717 51.1604 7.09509 51.0886 7.54826ZM50.671 4.18066H47.053C46.8056 4.18066 46.5951 4.35957 46.5565 4.60248L45.0936 13.8232C45.0647 14.005 45.2061 14.1695 45.3915 14.1695H47.2478C47.4209 14.1695 47.5684 14.0443 47.5952 13.8742L48.0102 11.2603C48.0487 11.0174 48.2593 10.8384 48.5066 10.8384H49.6515C52.0346 10.8384 53.4099 9.6921 53.7694 7.42026C53.9312 6.42664 53.7759 5.64588 53.3078 5.09929C52.7933 4.4984 51.8814 4.18066 50.671 4.18066Z" fill="#2790C3"/>
<path fill-rule="evenodd" clip-rule="evenodd" d="M59.0702 10.8585C58.9029 11.8424 58.1172 12.5029 57.1149 12.5029C56.6123 12.5029 56.2102 12.3423 55.9515 12.0381C55.6952 11.7365 55.5988 11.307 55.6801 10.8286C55.8361 9.85355 56.6344 9.17169 57.6216 9.17169C58.1135 9.17169 58.513 9.33396 58.7765 9.64087C59.0419 9.95004 59.1461 10.3825 59.0702 10.8585ZM61.4845 7.50705H59.7521C59.6037 7.50705 59.4774 7.6142 59.4543 7.76014L59.378 8.24159L59.257 8.06705C58.8817 7.52579 58.0456 7.34495 57.2107 7.34495C55.2969 7.34495 53.6617 8.78656 53.3435 10.8085C53.178 11.8172 53.4131 12.7811 53.9884 13.4539C54.5172 14.0721 55.2715 14.3294 56.1704 14.3294C57.7131 14.3294 58.5687 13.3443 58.5687 13.3443L58.4915 13.8228C58.4624 14.0048 58.6039 14.1695 58.7894 14.1695H60.3494C60.5967 14.1695 60.8073 13.9908 60.846 13.7479L61.7824 7.85339C61.8113 7.67141 61.6699 7.50705 61.4845 7.50705Z" fill="#2790C3"/>
<path fill-rule="evenodd" clip-rule="evenodd" d="M63.5265 4.43394L62.0416 13.8232C62.0128 14.0052 62.1543 14.1695 62.3395 14.1695H63.833C64.0803 14.1695 64.2908 13.9906 64.3294 13.7479L65.7934 4.52719C65.8224 4.34521 65.6809 4.18068 65.4956 4.18068H63.8243C63.6759 4.18068 63.5495 4.28816 63.5265 4.43394Z" fill="#2790C3"/>
<path fill-rule="evenodd" clip-rule="evenodd" d="M5.0849 4.68049C5.11758 4.47411 5.25075 4.30522 5.4301 4.21972C5.51173 4.18093 5.60279 4.15928 5.69823 4.15928H9.5875C10.0483 4.15928 10.4779 4.18934 10.8708 4.25221C10.9829 4.27015 11.0921 4.29083 11.1982 4.31427C11.3044 4.3377 11.4073 4.36372 11.507 4.39281C11.5569 4.4072 11.6059 4.42239 11.6542 4.43839C11.847 4.50207 12.0265 4.57706 12.1917 4.664C12.3865 3.42974 12.1904 2.58982 11.5187 1.8291C10.7792 0.9916 9.44327 0.632812 7.734 0.632812H2.77222C2.42295 0.632812 2.12555 0.885419 2.07108 1.22837L0.00506167 14.2503C-0.0357513 14.5072 0.164086 14.7395 0.425712 14.7395H3.4888L5.0849 4.68049Z" fill="#27346A"/>
<path fill-rule="evenodd" clip-rule="evenodd" d="M12.1916 4.66406C12.1768 4.75828 12.1604 4.85412 12.1409 4.95287C11.4868 8.29202 9.24806 9.44645 6.38887 9.44645H4.93293C4.58367 9.44645 4.28871 9.69921 4.23424 10.0422L3.27732 16.0722C3.24171 16.2969 3.41651 16.5002 3.64529 16.5002H6.22724C6.53277 16.5002 6.79293 16.2793 6.84058 15.9791L6.86594 15.8487L7.35228 12.7832L7.38367 12.6138C7.43131 12.3137 7.69147 12.0928 7.997 12.0928H8.38318C10.8845 12.0928 12.843 11.0826 13.4154 8.1616C13.6544 6.94107 13.5308 5.92224 12.8985 5.20596C12.7072 4.9894 12.4692 4.81016 12.1916 4.66406Z" fill="#2790C3"/>
<path fill-rule="evenodd" clip-rule="evenodd" d="M11.5071 4.39272C11.4074 4.36362 11.3045 4.3376 11.1983 4.31417C11.0921 4.29074 10.983 4.27005 10.8708 4.25211C10.478 4.18924 10.0484 4.15918 9.58754 4.15918H5.69828C5.60283 4.15918 5.51177 4.18084 5.43015 4.21962C5.2508 4.30512 5.11763 4.47401 5.08494 4.68039L4.25828 9.88993L4.23438 10.042C4.28885 9.69906 4.58381 9.44629 4.93307 9.44629H6.38901C9.2482 9.44629 11.4869 8.29187 12.141 4.95272C12.1606 4.85397 12.177 4.75813 12.1918 4.66391C12.0266 4.57696 11.8471 4.50197 11.6542 4.43829C11.6059 4.42229 11.557 4.4071 11.5071 4.39272Z" fill="#1F264F"/>
</g>
<defs>
<clipPath id="clip0_4802_7814">
<rect width="66" height="16" fill="white" transform="translate(-0.000244141 0.5)"/>
</clipPath>
</defs>
</svg>
