<svg width="40" height="40" viewBox="0 0 40 40" fill="none" xmlns="http://www.w3.org/2000/svg">
<g clip-path="url(#clip0_3510_7992)">
<path d="M26.5 6C25.8 6 25.2083 5.75833 24.725 5.275C24.2417 4.79167 24 4.2 24 3.5C24 2.8 24.2417 2.20833 24.725 1.725C25.2083 1.24167 25.8 1 26.5 1C27.2 1 27.7917 1.24167 28.275 1.725C28.7583 2.20833 29 2.8 29 3.5C29 4.2 28.7583 4.79167 28.275 5.275C27.7917 5.75833 27.2 6 26.5 6ZM26.5 39C25.8 39 25.2083 38.7583 24.725 38.275C24.2417 37.7917 24 37.2 24 36.5C24 35.8 24.2417 35.2083 24.725 34.725C25.2083 34.2417 25.8 34 26.5 34C27.2 34 27.7917 34.2417 28.275 34.725C28.7583 35.2083 29 35.8 29 36.5C29 37.2 28.7583 37.7917 28.275 38.275C27.7917 38.7583 27.2 39 26.5 39ZM34.5 13C33.8 13 33.2083 12.7583 32.725 12.275C32.2417 11.7917 32 11.2 32 10.5C32 9.8 32.2417 9.20833 32.725 8.725C33.2083 8.24167 33.8 8 34.5 8C35.2 8 35.7917 8.24167 36.275 8.725C36.7583 9.20833 37 9.8 37 10.5C37 11.2 36.7583 11.7917 36.275 12.275C35.7917 12.7583 35.2 13 34.5 13ZM34.5 32C33.8 32 33.2083 31.7583 32.725 31.275C32.2417 30.7917 32 30.2 32 29.5C32 28.8 32.2417 28.2083 32.725 27.725C33.2083 27.2417 33.8 27 34.5 27C35.2 27 35.7917 27.2417 36.275 27.725C36.7583 28.2083 37 28.8 37 29.5C37 30.2 36.7583 30.7917 36.275 31.275C35.7917 31.7583 35.2 32 34.5 32ZM37.5 22.5C36.8 22.5 36.2083 22.2583 35.725 21.775C35.2417 21.2917 35 20.7 35 20C35 19.3 35.2417 18.7083 35.725 18.225C36.2083 17.7417 36.8 17.5 37.5 17.5C38.2 17.5 38.7917 17.7417 39.275 18.225C39.7583 18.7083 40 19.3 40 20C40 20.7 39.7583 21.2917 39.275 21.775C38.7917 22.2583 38.2 22.5 37.5 22.5ZM20 40C17.2333 40 14.6333 39.475 12.2 38.425C9.76667 37.375 7.65 35.95 5.85 34.15C4.05 32.35 2.625 30.2333 1.575 27.8C0.525 25.3667 0 22.7667 0 20C0 17.2333 0.525 14.6333 1.575 12.2C2.625 9.76667 4.05 7.65 5.85 5.85C7.65 4.05 9.76667 2.625 12.2 1.575C14.6333 0.525 17.2333 0 20 0V4C15.5333 4 11.75 5.55 8.65 8.65C5.55 11.75 4 15.5333 4 20C4 24.4667 5.55 28.25 8.65 31.35C11.75 34.45 15.5333 36 20 36V40ZM20 24C18.9 24 17.9583 23.6083 17.175 22.825C16.3917 22.0417 16 21.1 16 20C16 19.8333 16.0083 19.6583 16.025 19.475C16.0417 19.2917 16.0833 19.1167 16.15 18.95L12 14.8L14.8 12L18.95 16.15C19.0833 16.1167 19.4333 16.0667 20 16C21.1 16 22.0417 16.3917 22.825 17.175C23.6083 17.9583 24 18.9 24 20C24 21.1 23.6083 22.0417 22.825 22.825C22.0417 23.6083 21.1 24 20 24Z" fill="#0273ED"/>
</g>
<defs>
<clipPath id="clip0_3510_7992">
<rect width="40" height="40" fill="white"/>
</clipPath>
</defs>
</svg>
