<svg width="40" height="40" viewBox="0 0 40 40" fill="none" xmlns="http://www.w3.org/2000/svg">
<g clip-path="url(#clip0_3510_7995)">
<path d="M30.0334 16.1667C29.7806 14.6861 29.2931 13.3139 28.5709 12.05C27.8487 10.7861 26.964 9.66667 25.9167 8.69167V14H21.5834V1H34.5834V5.33333H28.6793C30.232 6.70556 31.5049 8.3125 32.498 10.1542C33.4911 11.9958 34.132 14 34.4209 16.1667H30.0334ZM23.7501 29.1667H34.5834V24.8333H23.7501V29.1667ZM22.6667 33.5C21.764 33.5 20.9966 33.184 20.3647 32.5521C19.7327 31.9201 19.4167 31.1528 19.4167 30.25V23.75C19.4167 22.8472 19.7327 22.0799 20.3647 21.4479C20.9966 20.816 21.764 20.5 22.6667 20.5H35.6667C36.5695 20.5 37.3369 20.816 37.9688 21.4479C38.6008 22.0799 38.9167 22.8472 38.9167 23.75V30.25C38.9167 31.1528 38.6008 31.9201 37.9688 32.5521C37.3369 33.184 36.5695 33.5 35.6667 33.5H22.6667ZM-0.083252 35.6667V31.3333H5.82092C3.97925 29.7444 2.5348 27.8306 1.48758 25.5917C0.440359 23.3528 -0.083252 20.9333 -0.083252 18.3333C-0.083252 14.2889 1.14453 10.7229 3.60008 7.63542C6.05564 4.54792 9.16119 2.51667 12.9167 1.54167V6.09167C10.389 6.99444 8.31258 8.55625 6.68758 10.7771C5.06258 12.9979 4.25008 15.5167 4.25008 18.3333C4.25008 20.2833 4.63828 22.0799 5.41467 23.7229C6.19105 25.366 7.2473 26.7833 8.58342 27.975V22.6667H12.9167V35.6667H-0.083252ZM17.2501 40V35.6667H41.0834V40H17.2501Z" fill="#0273ED"/>
</g>
<defs>
<clipPath id="clip0_3510_7995">
<rect width="40" height="40" fill="white"/>
</clipPath>
</defs>
</svg>
