<svg width="40" height="40" viewBox="0 0 40 40" fill="none" xmlns="http://www.w3.org/2000/svg">
<path d="M5.77767 36C4.29619 36 3.03693 35.4815 1.99989 34.4444C0.962854 33.4074 0.444336 32.1481 0.444336 30.6667C0.444336 29.5111 0.777669 28.4741 1.44434 27.5556C2.111 26.637 2.96285 26 3.99989 25.6444V14.3556C2.96285 14 2.111 13.363 1.44434 12.4444C0.777669 11.5259 0.444336 10.4889 0.444336 9.33333C0.444336 7.85185 0.962854 6.59259 1.99989 5.55556C3.03693 4.51852 4.29619 4 5.77767 4C7.25915 4 8.51841 4.51852 9.55545 5.55556C10.5925 6.59259 11.111 7.85185 11.111 9.33333C11.111 10.4889 10.7777 11.5259 10.111 12.4444C9.44434 13.363 8.59248 14 7.55545 14.3556V18.2222H18.2221V14.3556C17.1851 14 16.3332 13.363 15.6666 12.4444C14.9999 11.5259 14.6666 10.4889 14.6666 9.33333C14.6666 7.85185 15.1851 6.59259 16.2221 5.55556C17.2592 4.51852 18.5184 4 19.9999 4C21.4814 4 22.7406 4.51852 23.7777 5.55556C24.8147 6.59259 25.3332 7.85185 25.3332 9.33333C25.3332 10.4889 24.9999 11.5259 24.3332 12.4444C23.6666 13.363 22.8147 14 21.7777 14.3556V18.2222H30.6666C31.1703 18.2222 31.5925 18.0519 31.9332 17.7111C32.274 17.3704 32.4443 16.9481 32.4443 16.4444V14.3556C31.4073 14 30.5554 13.363 29.8888 12.4444C29.2221 11.5259 28.8888 10.4889 28.8888 9.33333C28.8888 7.85185 29.4073 6.59259 30.4443 5.55556C31.4814 4.51852 32.7406 4 34.2221 4C35.7036 4 36.9629 4.51852 37.9999 5.55556C39.0369 6.59259 39.5555 7.85185 39.5555 9.33333C39.5555 10.4889 39.2221 11.5259 38.5555 12.4444C37.8888 13.363 37.0369 14 35.9999 14.3556V16.4444C35.9999 17.9259 35.4814 19.1852 34.4443 20.2222C33.4073 21.2593 32.148 21.7778 30.6666 21.7778H21.7777V25.6444C22.8147 26 23.6666 26.637 24.3332 27.5556C24.9999 28.4741 25.3332 29.5111 25.3332 30.6667C25.3332 32.1481 24.8147 33.4074 23.7777 34.4444C22.7406 35.4815 21.4814 36 19.9999 36C18.5184 36 17.2592 35.4815 16.2221 34.4444C15.1851 33.4074 14.6666 32.1481 14.6666 30.6667C14.6666 29.5111 14.9999 28.4741 15.6666 27.5556C16.3332 26.637 17.1851 26 18.2221 25.6444V21.7778H7.55545V25.6444C8.59248 26 9.44434 26.637 10.111 27.5556C10.7777 28.4741 11.111 29.5111 11.111 30.6667C11.111 32.1481 10.5925 33.4074 9.55545 34.4444C8.51841 35.4815 7.25915 36 5.77767 36ZM5.77767 32.4444C6.28137 32.4444 6.7036 32.2741 7.04434 31.9333C7.38508 31.5926 7.55545 31.1704 7.55545 30.6667C7.55545 30.163 7.38508 29.7407 7.04434 29.4C6.7036 29.0593 6.28137 28.8889 5.77767 28.8889C5.27397 28.8889 4.85174 29.0593 4.511 29.4C4.17026 29.7407 3.99989 30.163 3.99989 30.6667C3.99989 31.1704 4.17026 31.5926 4.511 31.9333C4.85174 32.2741 5.27397 32.4444 5.77767 32.4444ZM5.77767 11.1111C6.28137 11.1111 6.7036 10.9407 7.04434 10.6C7.38508 10.2593 7.55545 9.83704 7.55545 9.33333C7.55545 8.82963 7.38508 8.40741 7.04434 8.06667C6.7036 7.72593 6.28137 7.55556 5.77767 7.55556C5.27397 7.55556 4.85174 7.72593 4.511 8.06667C4.17026 8.40741 3.99989 8.82963 3.99989 9.33333C3.99989 9.83704 4.17026 10.2593 4.511 10.6C4.85174 10.9407 5.27397 11.1111 5.77767 11.1111ZM19.9999 32.4444C20.5036 32.4444 20.9258 32.2741 21.2666 31.9333C21.6073 31.5926 21.7777 31.1704 21.7777 30.6667C21.7777 30.163 21.6073 29.7407 21.2666 29.4C20.9258 29.0593 20.5036 28.8889 19.9999 28.8889C19.4962 28.8889 19.074 29.0593 18.7332 29.4C18.3925 29.7407 18.2221 30.163 18.2221 30.6667C18.2221 31.1704 18.3925 31.5926 18.7332 31.9333C19.074 32.2741 19.4962 32.4444 19.9999 32.4444ZM19.9999 11.1111C20.5036 11.1111 20.9258 10.9407 21.2666 10.6C21.6073 10.2593 21.7777 9.83704 21.7777 9.33333C21.7777 8.82963 21.6073 8.40741 21.2666 8.06667C20.9258 7.72593 20.5036 7.55556 19.9999 7.55556C19.4962 7.55556 19.074 7.72593 18.7332 8.06667C18.3925 8.40741 18.2221 8.82963 18.2221 9.33333C18.2221 9.83704 18.3925 10.2593 18.7332 10.6C19.074 10.9407 19.4962 11.1111 19.9999 11.1111ZM34.2221 11.1111C34.7258 11.1111 35.148 10.9407 35.4888 10.6C35.8295 10.2593 35.9999 9.83704 35.9999 9.33333C35.9999 8.82963 35.8295 8.40741 35.4888 8.06667C35.148 7.72593 34.7258 7.55556 34.2221 7.55556C33.7184 7.55556 33.2962 7.72593 32.9555 8.06667C32.6147 8.40741 32.4443 8.82963 32.4443 9.33333C32.4443 9.83704 32.6147 10.2593 32.9555 10.6C33.2962 10.9407 33.7184 11.1111 34.2221 11.1111Z" fill="#0273ED"/>
</svg>
