<svg width="40" height="40" viewBox="0 0 40 40" fill="none" xmlns="http://www.w3.org/2000/svg">
<g clip-path="url(#clip0_3510_7955)">
<path d="M3.42103 38C2.40787 38 1.54054 37.6393 0.819053 36.9178C0.097562 36.1963 -0.263184 35.3289 -0.263184 34.3158V10.3684H3.42103V34.3158H34.7368V38H3.42103ZM10.7894 30.6316C9.77629 30.6316 8.90897 30.2708 8.18747 29.5493C7.46598 28.8279 7.10524 27.9605 7.10524 26.9474V6.68421C7.10524 5.67105 7.46598 4.80373 8.18747 4.08224C8.90897 3.36075 9.77629 3 10.7894 3H20L23.6842 6.68421H36.5789C37.5921 6.68421 38.4594 7.04496 39.1809 7.76645C39.9024 8.48794 40.2631 9.35526 40.2631 10.3684V26.9474C40.2631 27.9605 39.9024 28.8279 39.1809 29.5493C38.4594 30.2708 37.5921 30.6316 36.5789 30.6316H10.7894ZM10.7894 26.9474H36.5789V10.3684H22.1644L18.4802 6.68421H10.7894V26.9474Z" fill="#0273ED"/>
</g>
<defs>
<clipPath id="clip0_3510_7955">
<rect width="40" height="40" fill="white"/>
</clipPath>
</defs>
</svg>
