<svg width="40" height="40" viewBox="0 0 40 40" fill="none" xmlns="http://www.w3.org/2000/svg">
<path d="M18.2 38C14.03 36.95 10.5875 34.5575 7.87255 30.8225C5.15755 27.0875 3.80005 22.94 3.80005 18.38V7.4L18.2 2L32.6 7.4V17.615C32.03 17.375 31.445 17.1575 30.845 16.9625C30.245 16.7675 29.63 16.625 29 16.535V9.92L18.2 5.87L7.40005 9.92V18.38C7.40005 19.79 7.58755 21.2 7.96255 22.61C8.33755 24.02 8.86255 25.3625 9.53755 26.6375C10.2125 27.9125 11.03 29.09 11.99 30.17C12.95 31.25 14.015 32.15 15.185 32.87C15.515 33.83 15.95 34.745 16.49 35.615C17.03 36.485 17.645 37.265 18.335 37.955C18.305 37.955 18.2825 37.9625 18.2675 37.9775C18.2525 37.9925 18.23 38 18.2 38ZM27.2 38C24.71 38 22.5875 37.1225 20.8325 35.3675C19.0775 33.6125 18.2 31.49 18.2 29C18.2 26.51 19.0775 24.3875 20.8325 22.6325C22.5875 20.8775 24.71 20 27.2 20C29.69 20 31.8125 20.8775 33.5675 22.6325C35.3225 24.3875 36.2 26.51 36.2 29C36.2 31.49 35.3225 33.6125 33.5675 35.3675C31.8125 37.1225 29.69 38 27.2 38ZM26.3 34.4H28.1V29.9H32.6V28.1H28.1V23.6H26.3V28.1H21.8V29.9H26.3V34.4Z" fill="#0273ED"/>
</svg>
