<svg width="151" height="40" viewBox="0 0 151 40" fill="none" xmlns="http://www.w3.org/2000/svg">
<g clip-path="url(#clip0_4802_7775)">
<path d="M58.3743 7.95811H60.5672V9.94764H60.6716C61.2982 9.21465 62.0292 8.69109 62.7601 8.27225C63.5956 7.8534 64.431 7.64397 65.4752 7.64397C66.5195 7.64397 67.4593 7.8534 68.2947 8.16753C69.1301 8.48167 69.8611 9.00523 70.4877 9.6335C71.1142 10.2618 71.5319 10.9948 71.9496 11.8325C72.2629 12.6702 72.4718 13.6126 72.4718 14.6597C72.4718 15.7068 72.2629 16.6492 71.9496 17.4869C71.6364 18.3246 71.1142 19.0576 70.4877 19.6859C69.8611 20.3141 69.1301 20.8377 68.3991 21.1518C67.5637 21.466 66.7283 21.6754 65.7885 21.6754C64.6398 21.6754 63.4911 21.466 62.6557 20.9424C61.7159 20.4188 61.0893 19.7906 60.6716 19.0576H60.5672V29.0052H58.3743V7.95811ZM60.5672 14.555C60.5672 15.288 60.6716 15.9162 60.8805 16.5445C61.0893 17.1728 61.4026 17.6963 61.8203 18.1152C62.238 18.534 62.7601 18.9529 63.2823 19.1623C63.9088 19.3717 64.5354 19.5811 65.2664 19.5811C65.9973 19.5811 66.6239 19.4764 67.2505 19.1623C67.877 18.9529 68.2947 18.534 68.7124 18.1152C69.1301 17.6963 69.4434 17.1728 69.6523 16.5445C69.8611 15.9162 69.9655 15.288 69.9655 14.555C69.9655 13.822 69.8611 13.1937 69.6523 12.5654C69.4434 11.9372 69.1301 11.4136 68.7124 10.9948C68.2947 10.5759 67.7726 10.1571 67.2505 9.94764C66.6239 9.73822 65.9973 9.52879 65.2664 9.52879C64.5354 9.52879 63.9088 9.6335 63.2823 9.94764C62.6557 10.1571 62.238 10.5759 61.8203 10.9948C61.4026 11.4136 61.0893 11.9372 60.8805 12.5654C60.6716 13.1937 60.5672 13.9267 60.5672 14.555Z" fill="#0273ED"/>
<path d="M75.0824 14.8691C75.0824 13.822 75.2912 12.8796 75.6045 12.0419C75.9178 11.2042 76.4399 10.4712 77.0665 9.84292C77.693 9.21464 78.424 8.79579 79.3639 8.37695C80.1993 8.06281 81.1391 7.85338 82.1834 7.85338C83.2276 7.85338 84.1674 8.06281 85.0029 8.37695C85.8383 8.69108 86.6737 9.21464 87.3002 9.84292C87.9268 10.4712 88.4489 11.2042 88.7622 12.0419C89.0755 12.8796 89.2843 13.822 89.2843 14.8691C89.2843 15.9162 89.0755 16.8586 88.7622 17.6963C88.4489 18.534 87.9268 19.267 87.3002 19.8953C86.6737 20.5235 85.9427 20.9424 85.0029 21.3612C84.1674 21.6754 83.2276 21.8848 82.1834 21.8848C81.1391 21.8848 80.1993 21.6754 79.3639 21.3612C78.5285 21.0471 77.693 20.5235 77.0665 19.8953C76.4399 19.267 75.9178 18.534 75.6045 17.6963C75.2912 16.8586 75.0824 15.9162 75.0824 14.8691ZM77.4842 14.8691C77.4842 15.6021 77.5886 16.2304 77.7975 16.8586C78.0063 17.4869 78.3196 18.0105 78.7373 18.4293C79.155 18.8482 79.6771 19.267 80.1993 19.4764C80.8258 19.6858 81.4524 19.8953 82.1834 19.8953C82.9143 19.8953 83.5409 19.7906 84.1674 19.4764C84.794 19.267 85.2117 18.8482 85.6294 18.4293C86.0471 18.0105 86.3604 17.4869 86.5693 16.8586C86.7781 16.2304 86.8825 15.6021 86.8825 14.8691C86.8825 14.1361 86.7781 13.5078 86.5693 12.8796C86.3604 12.2513 86.0471 11.7277 85.6294 11.3089C85.2117 10.89 84.6896 10.4712 84.1674 10.2618C83.5409 10.0523 82.9143 9.84292 82.1834 9.84292C81.4524 9.84292 80.8258 9.94763 80.1993 10.2618C79.5727 10.4712 79.155 10.89 78.7373 11.3089C78.3196 11.7277 78.0063 12.2513 77.7975 12.8796C77.5886 13.5078 77.4842 14.1361 77.4842 14.8691Z" fill="#0273ED"/>
<path d="M93.0437 18.0105C93.4614 18.5341 93.9835 18.9529 94.5056 19.3718C95.0278 19.6859 95.6543 19.8953 96.4897 19.8953C96.803 19.8953 97.2207 19.8953 97.534 19.7906C97.8473 19.6859 98.1606 19.5812 98.4738 19.3718C98.7871 19.1623 98.996 18.9529 99.2048 18.7435C99.4137 18.5341 99.4137 18.2199 99.4137 17.8011C99.4137 17.4869 99.3092 17.1728 99.2048 16.9634C98.996 16.754 98.7871 16.5445 98.5783 16.3351C98.265 16.1257 98.0561 16.021 97.6384 15.9163C97.3251 15.8116 96.9074 15.7068 96.5942 15.7068C95.9676 15.6021 95.341 15.3927 94.8189 15.288C94.2968 15.0786 93.7747 14.8691 93.357 14.6597C92.9393 14.3456 92.626 14.0314 92.3127 13.6126C91.9994 13.1938 91.895 12.5655 91.895 11.9372C91.895 11.3089 91.9994 10.6807 92.3127 10.2618C92.626 9.73825 92.9393 9.31941 93.4614 9.00527C93.9835 8.69113 94.5056 8.48171 95.0278 8.27228C95.6543 8.06286 96.1765 8.06286 96.803 8.06286C97.7429 8.06286 98.5783 8.27228 99.4137 8.58642C100.249 9.00527 100.876 9.63354 101.293 10.4712L99.4137 11.7278C99.1004 11.2042 98.7871 10.8901 98.265 10.5759C97.8473 10.2618 97.2207 10.1571 96.5942 10.1571C96.2809 10.1571 95.9676 10.1571 95.6543 10.2618C95.3411 10.3665 95.0278 10.4712 94.8189 10.5759C94.6101 10.6807 94.4012 10.8901 94.1924 11.2042C93.9835 11.4136 93.9835 11.7278 93.9835 12.0419C93.9835 12.3561 94.0879 12.5655 94.2968 12.7749C94.5056 12.9843 94.7145 13.1938 95.0278 13.2985C95.341 13.4032 95.6543 13.6126 96.072 13.7173C96.4897 13.822 96.9074 13.9267 97.3251 14.0314C97.9517 14.1362 98.4738 14.3456 98.996 14.4503C99.5181 14.6597 100.04 14.8691 100.354 15.1833C100.771 15.4974 101.084 15.9163 101.293 16.3351C101.502 16.754 101.607 17.3822 101.607 18.0105C101.607 18.7435 101.502 19.3718 101.189 20C100.876 20.5236 100.458 20.9424 99.9358 21.2566C99.4137 21.5707 98.8915 21.8849 98.265 21.9896C97.6384 22.0943 97.0119 22.199 96.2809 22.199C95.1322 22.199 94.1924 21.9896 93.357 21.6754C92.5216 21.3613 91.7906 20.6283 91.164 19.6859L93.0437 18.0105Z" fill="#0273ED"/>
<path d="M112.258 10.0523H108.29V16.7539C108.29 17.1727 108.29 17.5916 108.29 18.0104C108.29 18.4293 108.394 18.7434 108.499 18.9529C108.603 19.267 108.812 19.4764 109.125 19.5811C109.439 19.7906 109.752 19.7906 110.274 19.7906C110.587 19.7906 110.901 19.7905 111.318 19.6858C111.632 19.5811 111.945 19.4764 112.258 19.3717L112.362 21.3612C111.945 21.5707 111.527 21.6754 111.109 21.7801C110.692 21.8848 110.17 21.8848 109.752 21.8848C108.916 21.8848 108.29 21.7801 107.872 21.5707C107.35 21.3612 107.037 21.0471 106.723 20.733C106.41 20.3141 106.306 19.8953 106.201 19.3717C106.097 18.8481 106.097 18.2199 106.097 17.4869V10.157H103.173V8.16751H106.097V4.39788H108.29V8.16751H112.258V10.0523Z" fill="#0273ED"/>
<path d="M114.66 2.93196C114.66 2.51311 114.869 2.09427 115.182 1.78013C115.495 1.46599 115.913 1.25657 116.331 1.25657C116.748 1.25657 117.166 1.46599 117.479 1.78013C117.793 2.09427 118.001 2.51311 118.001 2.93196C118.001 3.45552 117.897 3.76966 117.584 4.08379C117.271 4.39793 116.853 4.50264 116.435 4.50264C115.913 4.50264 115.6 4.39793 115.286 4.08379C114.869 3.76966 114.66 3.45552 114.66 2.93196ZM115.182 8.16756H117.375V21.5707H115.182V8.16756Z" fill="#0273ED"/>
<path d="M121.865 11.3089C121.865 10.6806 121.865 10.1571 121.761 9.63349C121.761 9.10993 121.656 8.58637 121.656 8.16752H123.745C123.745 8.48166 123.745 8.90051 123.745 9.21464C123.745 9.52878 123.745 9.94763 123.745 10.3665H123.849C123.954 10.0523 124.163 9.7382 124.476 9.42407C124.789 9.10993 125.102 8.90051 125.416 8.58637C125.833 8.37695 126.251 8.16752 126.669 8.06281C127.191 7.9581 127.609 7.85338 128.235 7.85338C129.071 7.85338 129.906 7.9581 130.533 8.27223C131.159 8.58637 131.681 8.90051 132.099 9.42407C132.517 9.94763 132.83 10.4712 133.039 11.0995C133.248 11.7277 133.352 12.5654 133.352 13.2984V21.5707H131.159V13.5078C131.159 12.356 130.95 11.5183 130.428 10.89C129.906 10.2618 129.175 9.94763 128.131 9.94763C127.4 9.94763 126.773 10.0523 126.251 10.3665C125.729 10.5759 125.311 10.9947 124.998 11.4136C124.685 11.8324 124.371 12.4607 124.267 13.089C124.058 13.7173 124.058 14.4502 124.058 15.1832V21.6754H121.865V11.3089Z" fill="#0273ED"/>
<path d="M151 20.9424C151 23.3508 150.374 25.2356 149.12 26.4922C147.867 27.7487 146.092 28.377 143.69 28.377C142.333 28.377 141.184 28.1676 140.14 27.8534C139.096 27.4346 138.051 26.8063 137.111 25.8639L138.678 24.0838C139.409 24.8168 140.14 25.4451 140.871 25.8639C141.706 26.2828 142.542 26.4922 143.586 26.4922C144.526 26.4922 145.361 26.3875 146.092 26.0733C146.719 25.7592 147.241 25.3403 147.658 24.9215C148.076 24.3979 148.285 23.8744 148.494 23.1414C148.598 22.5131 148.703 21.7801 148.703 21.1519V19.4765H148.598C148.076 20.3142 147.345 20.9424 146.51 21.3613C145.674 21.7801 144.735 21.9896 143.899 21.9896C142.855 21.9896 141.915 21.7801 140.975 21.466C140.14 21.1519 139.304 20.6283 138.678 20C138.051 19.3718 137.529 18.6388 137.216 17.8011C136.903 16.9634 136.694 16.021 136.694 15.0786C136.694 14.0314 136.903 12.9843 137.216 12.1466C137.529 11.3089 138.051 10.5759 138.678 9.94768C139.304 9.31941 140.035 8.90056 140.871 8.58642C141.706 8.27228 142.75 8.06286 143.795 8.06286C144.212 8.06286 144.735 8.16757 145.152 8.16757C145.57 8.27228 146.092 8.48171 146.51 8.69113C146.927 8.90056 147.345 9.21469 147.658 9.52883C147.972 9.84297 148.285 10.2618 148.494 10.6807H148.598V8.16757H151L151 20.9424ZM139.304 14.8691C139.304 15.6021 139.409 16.2304 139.722 16.754C139.931 17.3822 140.349 17.8011 140.766 18.2199C141.184 18.6388 141.706 18.9529 142.228 19.2671C142.75 19.4765 143.377 19.6859 144.004 19.6859C144.735 19.6859 145.466 19.5812 145.988 19.2671C146.614 18.9529 147.032 18.6388 147.45 18.2199C147.867 17.8011 148.181 17.2775 148.389 16.6492C148.598 16.021 148.703 15.4974 148.703 14.7644C148.703 14.0314 148.598 13.4032 148.389 12.7749C148.181 12.1466 147.867 11.6231 147.45 11.2042C147.032 10.7854 146.51 10.4712 145.988 10.1571C145.361 9.94768 144.735 9.84297 144.004 9.84297C143.273 9.84297 142.646 9.94768 142.124 10.2618C141.497 10.4712 141.08 10.8901 140.662 11.3089C140.244 11.7278 139.931 12.2513 139.722 12.8796C139.409 13.5079 139.304 14.1362 139.304 14.8691Z" fill="#0273ED"/>
<path d="M0 0V40L10.7025 32.4607V7.95812H15.5768V9.5288C16.6365 8.27225 18.014 7.53927 19.8154 7.53927C20.7691 7.53927 21.7228 7.74869 22.5705 8.06283C23.4182 8.48168 24.16 9.00524 24.7958 9.63351C25.4316 10.2618 25.9614 11.0995 26.2793 11.9372C26.5972 12.7749 26.8091 13.822 26.8091 14.7644C26.8091 15.8115 26.5972 16.7539 26.2793 17.5916C25.9614 18.4293 25.4316 19.267 24.7958 19.8953C24.16 20.5236 23.4182 21.0471 22.5705 21.466C21.7228 21.8848 20.7691 21.9895 19.8154 21.9895C18.12 21.9895 16.6365 21.3613 15.4709 20.2094V28.9005H50.3333V0H0ZM41.3263 12.2513C40.6905 11.9372 39.9488 11.7277 39.207 11.7277C38.0414 11.7277 37.1937 12.0419 36.6639 12.7749C36.134 13.4031 35.8161 14.4503 35.8161 15.7068V21.5707H30.9417V7.8534H35.8161V10.0524C36.346 9.21466 36.9817 8.58639 37.7235 8.16754C38.4653 7.74869 39.313 7.53927 40.3726 7.53927C40.4786 7.53927 40.5846 7.53927 40.7965 7.53927C40.9024 7.53927 41.1144 7.53927 41.3263 7.64398V12.2513Z" fill="#0273ED"/>
<path d="M16.3185 16.8586C16.6364 17.1727 16.9543 17.3822 17.3782 17.4869C17.802 17.6963 18.2259 17.6963 18.6498 17.6963C19.0736 17.6963 19.4975 17.5916 19.8154 17.4869C20.2392 17.2774 20.5571 17.068 20.7691 16.8586C21.087 16.5445 21.2989 16.2303 21.4049 15.9162C21.6168 15.4973 21.6168 15.1832 21.6168 14.7643C21.6168 14.3455 21.5108 13.9267 21.4049 13.5078C21.2989 13.089 20.981 12.7748 20.7691 12.4607C20.4512 12.1465 20.1333 11.9371 19.7094 11.8324C19.2856 11.623 18.8617 11.623 18.4378 11.623C18.014 11.623 17.5901 11.7277 17.2722 11.8324C16.8484 12.0418 16.5305 12.2513 16.3185 12.4607C16.0006 12.7748 15.7887 13.089 15.6828 13.5078C15.4708 13.9267 15.4708 14.3455 15.4708 14.7643C15.4708 15.1832 15.5768 15.602 15.6828 15.9162C15.7887 16.2303 16.0006 16.6492 16.3185 16.8586Z" fill="#0273ED"/>
</g>
<defs>
<clipPath id="clip0_4802_7775">
<rect width="151" height="40" fill="white"/>
</clipPath>
</defs>
</svg>
