<svg width="144" height="38" viewBox="0 0 144 38" fill="none" xmlns="http://www.w3.org/2000/svg">
<g clip-path="url(#clip0_3437_9272)">
<path d="M0 -0.5V36.431L10.0581 29.4702V6.84753H14.639V8.2977C15.6348 7.13757 16.9295 6.46082 18.6224 6.46082C19.5186 6.46082 20.4149 6.65418 21.2116 6.9442C22.0084 7.33092 22.7054 7.8143 23.3028 8.39438C23.9004 8.97444 24.3983 9.74786 24.6971 10.5213C24.9958 11.2947 25.195 12.2615 25.195 13.1316C25.195 14.0984 24.9958 14.9685 24.6971 15.7419C24.3983 16.5153 23.9004 17.2888 23.3028 17.8687C22.7054 18.4489 22.0084 18.9322 21.2116 19.3189C20.4149 19.7057 19.5186 19.8025 18.6224 19.8025C17.029 19.8025 15.6348 19.2223 14.5394 18.1589V26.1832H47.2527V12.8416V-0.5H0ZM38.8381 10.8113C38.2407 10.5213 37.5436 10.3279 36.8464 10.3279C35.751 10.3279 34.9544 10.618 34.4564 11.2947C33.9585 11.8748 33.6598 12.8416 33.6598 14.0017V19.4157H29.0789V6.75085H33.6598V8.78109C34.1577 8.00767 34.7552 7.42759 35.4523 7.04088C36.1493 6.65418 36.9461 6.46082 37.9418 6.46082C38.0415 6.46082 38.141 6.46082 38.3402 6.46082C38.4399 6.46082 38.6391 6.46082 38.8381 6.55749V10.8113Z" fill="#005BBB"/>
<path d="M15.336 15.0651C15.6347 15.3552 15.9335 15.5485 16.3318 15.6452C16.7302 15.8386 17.1285 15.8386 17.5269 15.8386C17.9252 15.8386 18.3236 15.7419 18.6223 15.6452C19.0207 15.4518 19.3194 15.2585 19.5186 15.0651C19.8172 14.7751 20.0164 14.4851 20.1161 14.195C20.3153 13.8083 20.3153 13.5183 20.3153 13.1316C20.3153 12.7449 20.2156 12.3582 20.1161 11.9714C20.0164 11.5847 19.7177 11.2947 19.5186 11.0047C19.2199 10.7146 18.921 10.5213 18.5226 10.4246C18.1244 10.2312 17.7261 10.2312 17.3277 10.2312C16.9293 10.2312 16.531 10.3279 16.2322 10.4246C15.8339 10.6179 15.5352 10.8113 15.336 11.0047C15.0372 11.2947 14.8381 11.5847 14.7385 11.9714C14.5393 12.3582 14.5393 12.7449 14.5393 13.1316C14.5393 13.5183 14.6389 13.905 14.7385 14.195C14.8381 14.4851 15.0372 14.8718 15.336 15.0651Z" fill="#005BBB"/>
<mask id="mask0_3437_9272" style="mask-type:alpha" maskUnits="userSpaceOnUse" x="0" y="13" width="48" height="24">
<path d="M47.2527 13.3959H0V36.5H47.2527V13.3959Z" fill="#FFD500"/>
</mask>
<g mask="url(#mask0_3437_9272)">
<path d="M0 -0.5V36.431L10.0581 29.4702V6.84753H14.639V8.2977C15.6348 7.13757 16.9295 6.46082 18.6224 6.46082C19.5186 6.46082 20.4149 6.65418 21.2116 6.9442C22.0084 7.33092 22.7054 7.8143 23.3028 8.39438C23.9004 8.97444 24.3983 9.74786 24.6971 10.5213C24.9958 11.2947 25.195 12.2615 25.195 13.1316C25.195 14.0984 24.9958 14.9685 24.6971 15.7419C24.3983 16.5153 23.9004 17.2888 23.3028 17.8687C22.7054 18.4489 22.0084 18.9322 21.2116 19.3189C20.4149 19.7057 19.5186 19.8025 18.6224 19.8025C17.029 19.8025 15.6348 19.2223 14.5394 18.1589V26.1832H47.3029V-0.5H0ZM38.8381 10.8113C38.2407 10.5213 37.5436 10.3279 36.8464 10.3279C35.751 10.3279 34.9544 10.618 34.4564 11.2947C33.9585 11.8748 33.6598 12.8416 33.6598 14.0017V19.4157H29.0789V6.75085H33.6598V8.78109C34.1577 8.00767 34.7552 7.42759 35.4523 7.04088C36.1493 6.65418 36.9461 6.46082 37.9418 6.46082C38.0415 6.46082 38.141 6.46082 38.3402 6.46082C38.4399 6.46082 38.6391 6.46082 38.8381 6.55749V10.8113Z" fill="#FFD500"/>
<path d="M15.336 15.0651C15.6347 15.3552 15.9335 15.5485 16.3318 15.6452C16.7302 15.8386 17.1285 15.8386 17.5269 15.8386C17.9252 15.8386 18.3236 15.7419 18.6223 15.6452C19.0207 15.4518 19.3194 15.2585 19.5186 15.0651C19.8172 14.7751 20.0164 14.4851 20.1161 14.195C20.3153 13.8083 20.3153 13.5183 20.3153 13.1316C20.3153 12.7449 20.2156 12.3582 20.1161 11.9714C20.0164 11.5847 19.7177 11.2947 19.5186 11.0047C19.2199 10.7146 18.921 10.5213 18.5226 10.4246C18.1244 10.2312 17.7261 10.2312 17.3277 10.2312C16.9293 10.2312 16.531 10.3279 16.2322 10.4246C15.8339 10.6179 15.5352 10.8113 15.336 11.0047C15.0372 11.2947 14.8381 11.5847 14.7385 11.9714C14.5393 12.3582 14.5393 12.7449 14.5393 13.1316C14.5393 13.5183 14.6389 13.905 14.7385 14.195C14.8381 14.4851 15.0372 14.8718 15.336 15.0651Z" fill="#FFD500"/>
</g>
<path d="M55.668 6.84758H57.7593V8.68445H57.8588C58.4564 8.00771 59.1535 7.52433 59.8507 7.13762C60.6473 6.75089 61.444 6.55754 62.4398 6.55754C63.4357 6.55754 64.3319 6.75089 65.1287 7.04093C65.9253 7.33097 66.6225 7.81435 67.2199 8.39443C67.8174 8.97449 68.2158 9.65124 68.6142 10.4247C68.9129 11.1981 69.1121 12.0682 69.1121 13.035C69.1121 14.0018 68.9129 14.8719 68.6142 15.6453C68.3153 16.4187 67.8174 17.0954 67.2199 17.6755C66.6225 18.2556 65.9253 18.739 65.2282 19.029C64.4316 19.3191 63.6349 19.5125 62.7386 19.5125C61.6432 19.5125 60.5478 19.3191 59.751 18.8356C58.8548 18.3523 58.2572 17.7721 57.8588 17.0954H57.7593V26.2798H55.668V6.84758ZM57.7593 12.9383C57.7593 13.615 57.8588 14.1951 58.058 14.7752C58.2572 15.3552 58.5561 15.8386 58.9543 16.2253C59.3526 16.6121 59.8507 16.9988 60.3486 17.1922C60.9461 17.3854 61.5435 17.5788 62.2408 17.5788C62.9378 17.5788 63.5352 17.4822 64.1328 17.1922C64.7303 16.9988 65.1287 16.6121 65.5271 16.2253C65.9253 15.8386 66.2241 15.3552 66.4233 14.7752C66.6225 14.1951 66.722 13.615 66.722 12.9383C66.722 12.2616 66.6225 11.6815 66.4233 11.1014C66.2241 10.5213 65.9253 10.038 65.5271 9.65124C65.1287 9.26453 64.6306 8.87781 64.1328 8.68445C63.5352 8.4911 62.9378 8.29774 62.2408 8.29774C61.5435 8.29774 60.9461 8.39443 60.3486 8.68445C59.751 8.87781 59.3526 9.26453 58.9543 9.65124C58.5561 10.038 58.2572 10.5213 58.058 11.1014C57.8588 11.6815 57.7593 12.3582 57.7593 12.9383Z" fill="black"/>
<path d="M71.6016 13.2283C71.6016 12.2615 71.8008 11.3914 72.0997 10.618C72.3984 9.84455 72.8962 9.1678 73.4938 8.58773C74.0913 8.00767 74.7884 7.62095 75.6847 7.23424C76.4814 6.94421 77.3777 6.75086 78.3734 6.75086C79.3693 6.75086 80.2656 6.94421 81.0623 7.23424C81.8589 7.52428 82.6556 8.00767 83.2532 8.58773C83.8506 9.1678 84.3486 9.84455 84.6473 10.618C84.946 11.3914 85.1452 12.2615 85.1452 13.2283C85.1452 14.1951 84.946 15.0652 84.6473 15.8386C84.3486 16.6121 83.8506 17.2888 83.2532 17.8687C82.6556 18.4489 81.9586 18.8356 81.0623 19.2223C80.2656 19.5123 79.3693 19.7057 78.3734 19.7057C77.3777 19.7057 76.4814 19.5123 75.6847 19.2223C74.8879 18.9324 74.0913 18.4489 73.4938 17.8687C72.8962 17.2888 72.3984 16.6121 72.0997 15.8386C71.8008 15.0652 71.6016 14.1951 71.6016 13.2283ZM73.8922 13.2283C73.8922 13.905 73.9917 14.4851 74.1909 15.0652C74.39 15.6452 74.6887 16.1286 75.0871 16.5153C75.4855 16.9021 75.9834 17.2888 76.4814 17.4822C77.0788 17.6755 77.6763 17.8687 78.3734 17.8687C79.0705 17.8687 79.668 17.7721 80.2656 17.4822C80.8631 17.2888 81.2613 16.9021 81.6597 16.5153C82.0581 16.1286 82.3568 15.6452 82.556 15.0652C82.7551 14.4851 82.8548 13.905 82.8548 13.2283C82.8548 12.5515 82.7551 11.9715 82.556 11.3914C82.3568 10.8113 82.0581 10.3279 81.6597 9.94123C81.2613 9.55451 80.7635 9.1678 80.2656 8.97444C79.668 8.78109 79.0705 8.58773 78.3734 8.58773C77.6763 8.58773 77.0788 8.68442 76.4814 8.97444C75.8838 9.1678 75.4855 9.55451 75.0871 9.94123C74.6887 10.3279 74.39 10.8113 74.1909 11.3914C73.9917 11.9715 73.8922 12.5515 73.8922 13.2283Z" fill="black"/>
<path d="M88.7302 16.1286C89.1286 16.6119 89.6264 16.9987 90.1245 17.3854C90.6224 17.6754 91.2199 17.8687 92.0165 17.8687C92.3154 17.8687 92.7137 17.8687 93.0124 17.7721C93.3111 17.6754 93.61 17.5788 93.9087 17.3854C94.2074 17.192 94.4066 16.9987 94.6057 16.8053C94.8049 16.6119 94.8049 16.3219 94.8049 15.9352C94.8049 15.6452 94.7054 15.3552 94.6057 15.1618C94.4066 14.9684 94.2074 14.7751 94.0084 14.5817C93.7095 14.3884 93.5103 14.2917 93.1119 14.195C92.8132 14.0983 92.4149 14.0017 92.1162 14.0017C91.5186 13.905 90.9211 13.7116 90.4232 13.6149C89.9253 13.4216 89.4274 13.2282 89.0291 13.0349C88.6307 12.7448 88.332 12.4548 88.0331 12.0681C87.7344 11.6814 87.6348 11.1013 87.6348 10.5212C87.6348 9.94118 87.7344 9.36112 88.0331 8.97439C88.332 8.49102 88.6307 8.10429 89.1286 7.81427C89.6264 7.52423 90.1245 7.33087 90.6224 7.13752C91.2199 6.94416 91.7178 6.94416 92.3154 6.94416C93.2116 6.94416 94.0082 7.13752 94.8049 7.42756C95.6017 7.81427 96.1991 8.39433 96.5974 9.16775L94.8049 10.3279C94.5062 9.84449 94.2074 9.55447 93.7095 9.26443C93.3111 8.97439 92.7137 8.87772 92.1162 8.87772C91.8173 8.87772 91.5186 8.87772 91.2199 8.97439C90.9211 9.07108 90.6224 9.16775 90.4232 9.26443C90.224 9.36112 90.0248 9.55447 89.8256 9.8445C89.6264 10.0379 89.6264 10.3279 89.6264 10.6179C89.6264 10.908 89.7261 11.1013 89.9253 11.2947C90.1245 11.488 90.3237 11.6814 90.6224 11.7781C90.9211 11.8747 91.2199 12.0681 91.6183 12.1648C92.0165 12.2614 92.4149 12.3581 92.8132 12.4548C93.4108 12.5515 93.9087 12.7448 94.4066 12.8415C94.9046 13.0349 95.4025 13.2282 95.7012 13.5183C96.0996 13.8083 96.3982 14.195 96.5974 14.5817C96.7966 14.9684 96.8963 15.5485 96.8963 16.1286C96.8963 16.8053 96.7966 17.3854 96.4979 17.9655C96.1991 18.4489 95.8009 18.8356 95.3028 19.1256C94.8049 19.4155 94.3071 19.7057 93.7095 19.8023C93.1119 19.8991 92.5146 19.9957 91.8173 19.9957C90.7219 19.9957 89.8256 19.8023 89.0291 19.5123C88.2323 19.2223 87.5353 18.5455 86.9377 17.6754L88.7302 16.1286Z" fill="black"/>
<path d="M107.054 8.78104H103.27V14.9684C103.27 15.3552 103.27 15.7419 103.27 16.1286C103.27 16.5153 103.369 16.8053 103.469 16.9987C103.568 17.2886 103.768 17.482 104.066 17.5788C104.365 17.7721 104.664 17.7721 105.162 17.7721C105.461 17.7721 105.759 17.7721 106.158 17.6754C106.456 17.5788 106.755 17.482 107.054 17.3854L107.154 19.2223C106.755 19.4155 106.357 19.5123 105.958 19.6089C105.56 19.7057 105.062 19.7057 104.664 19.7057C103.867 19.7057 103.27 19.6089 102.871 19.4155C102.373 19.2223 102.075 18.9322 101.776 18.6422C101.477 18.2555 101.378 17.8687 101.278 17.3854C101.178 16.9021 101.178 16.3219 101.178 15.6452V8.87772H98.3899V7.04083H101.178V3.56044H103.27V7.04083H107.054V8.78104Z" fill="black"/>
<path d="M109.344 2.20694C109.344 1.82023 109.543 1.43351 109.842 1.14348C110.141 0.853447 110.539 0.660091 110.938 0.660091C111.336 0.660091 111.734 0.853447 112.033 1.14348C112.332 1.43351 112.531 1.82023 112.531 2.20694C112.531 2.69034 112.432 2.98036 112.133 3.2704C111.834 3.56044 111.436 3.65711 111.037 3.65711C110.539 3.65711 110.241 3.56044 109.942 3.2704C109.543 2.98036 109.344 2.69034 109.344 2.20694ZM109.842 7.04083H111.934V19.4155H109.842V7.04083Z" fill="black"/>
<path d="M116.216 9.94123C116.216 9.36115 116.216 8.87777 116.116 8.39438C116.116 7.91099 116.017 7.42759 116.017 7.04088H118.008C118.008 7.33092 118.008 7.71763 118.008 8.00767C118.008 8.2977 118.008 8.68442 118.008 9.07113H118.108C118.207 8.78109 118.407 8.49105 118.705 8.20103C119.004 7.91099 119.303 7.71763 119.602 7.42759C120 7.23424 120.398 7.04088 120.797 6.94421C121.295 6.84753 121.693 6.75086 122.29 6.75086C123.087 6.75086 123.884 6.84753 124.481 7.13757C125.079 7.42759 125.577 7.71763 125.975 8.20103C126.373 8.68442 126.672 9.1678 126.871 9.74788C127.071 10.3279 127.17 11.1014 127.17 11.7781V19.4157H125.079V11.9715C125.079 10.908 124.88 10.1346 124.382 9.55452C123.884 8.97444 123.187 8.68442 122.191 8.68442C121.494 8.68442 120.896 8.78109 120.398 9.07113C119.9 9.26448 119.502 9.65119 119.203 10.0379C118.904 10.4246 118.606 11.0047 118.506 11.5848C118.307 12.1648 118.307 12.8416 118.307 13.5183V19.5123H116.216V9.94123Z" fill="black"/>
<path d="M144 18.8356C144 21.0591 143.402 22.7993 142.207 23.9595C141.012 25.1196 139.32 25.6997 137.029 25.6997C135.734 25.6997 134.639 25.5063 133.643 25.2163C132.647 24.8296 131.651 24.2495 130.755 23.3794L132.249 21.7358C132.946 22.4127 133.643 22.9927 134.34 23.3794C135.137 23.7661 135.934 23.9595 136.93 23.9595C137.826 23.9595 138.622 23.8627 139.32 23.5728C139.917 23.2828 140.415 22.8961 140.813 22.5093C141.212 22.026 141.411 21.5426 141.61 20.8657C141.709 20.2858 141.809 19.6089 141.809 19.029V17.482H141.709C141.212 18.2555 140.515 18.8356 139.718 19.2223C138.921 19.6089 138.025 19.8023 137.228 19.8023C136.232 19.8023 135.336 19.6089 134.44 19.3189C133.643 19.029 132.846 18.5455 132.249 17.9655C131.651 17.3854 131.153 16.7087 130.855 15.9352C130.556 15.1618 130.357 14.2917 130.357 13.4216C130.357 12.4548 130.556 11.488 130.855 10.7146C131.153 9.94118 131.651 9.26443 132.249 8.68437C132.846 8.10429 133.544 7.71758 134.34 7.42756C135.137 7.13752 136.133 6.94416 137.129 6.94416C137.527 6.94416 138.025 7.04083 138.423 7.04083C138.822 7.13752 139.32 7.33087 139.718 7.52423C140.116 7.71758 140.515 8.00762 140.813 8.29765C141.112 8.58769 141.411 8.97439 141.61 9.36112H141.709V7.04083H143.801L144 18.8356ZM132.846 13.2282C132.846 13.905 132.946 14.4851 133.245 14.9684C133.444 15.5485 133.842 15.9352 134.241 16.3219C134.639 16.7087 135.137 16.9987 135.635 17.2886C136.133 17.482 136.73 17.6754 137.328 17.6754C138.025 17.6754 138.722 17.5788 139.22 17.2886C139.817 16.9987 140.216 16.7087 140.614 16.3219C141.012 15.9352 141.311 15.4518 141.51 14.8718C141.71 14.2917 141.809 13.8083 141.809 13.1316C141.809 12.4548 141.71 11.8747 141.51 11.2947C141.311 10.7146 141.012 10.2312 140.614 9.8445C140.216 9.45779 139.718 9.16775 139.22 8.87772C138.622 8.68437 138.025 8.58769 137.328 8.58769C136.631 8.58769 136.033 8.68437 135.535 8.97439C134.938 9.16775 134.539 9.55447 134.141 9.94118C133.743 10.3279 133.444 10.8113 133.245 11.3913C132.946 11.9714 132.846 12.5515 132.846 13.2282Z" fill="black"/>
</g>
<defs>
<clipPath id="clip0_3437_9272">
<rect width="144" height="38" fill="white"/>
</clipPath>
</defs>
</svg>
