<svg width="14" height="13" viewBox="0 0 14 13" fill="none" xmlns="http://www.w3.org/2000/svg">
<path d="M13 6.5C13 8.0913 12.3679 9.61742 11.2426 10.7426C10.1174 11.8679 8.5913 12.5 7 12.5M13 6.5C13 4.9087 12.3679 3.38258 11.2426 2.25736C10.1174 1.13214 8.5913 0.5 7 0.5M13 6.5H7H1M7 12.5C5.4087 12.5 3.88258 11.8679 2.75736 10.7426C1.63214 9.61742 1 8.0913 1 6.5M7 12.5C8.10467 12.5 9 9.81333 9 6.5C9 3.18667 8.10467 0.5 7 0.5M7 12.5C5.89533 12.5 5 9.81333 5 6.5C5 3.18667 5.89533 0.5 7 0.5M7 0.5C5.4087 0.5 3.88258 1.13214 2.75736 2.25736C1.63214 3.38258 1 4.9087 1 6.5" stroke="black" stroke-linecap="round" stroke-linejoin="round"/>
</svg>
