<svg width="45" height="45" viewBox="0 0 45 45" fill="none" xmlns="http://www.w3.org/2000/svg">
<g clip-path="url(#clip0_3561_11837)">
<mask id="mask0_3561_11837" style="mask-type:luminance" maskUnits="userSpaceOnUse" x="0" y="0" width="45" height="45">
<path d="M45 0H0V45H45V0Z" fill="white"/>
</mask>
<g mask="url(#mask0_3561_11837)">
<path d="M45 0H0V45H45V0Z" fill="#3E8DFF"/>
<path d="M34.3407 24.6833C33.8372 24.3037 32.8121 23.8321 31.9465 23.5299C32.0362 22.9496 32.0685 22.2218 31.9304 21.3798H31.9268V21.3596H31.9304V21.3798C32.8014 21.2177 33.6257 20.8547 34.3407 20.3167C35.0271 19.7935 34.8945 19.2039 34.7906 18.8539C33.9411 16.022 32.1311 13.5992 29.6921 12.0221C27.2531 10.4468 24.3429 9.82224 21.4935 10.2626C18.6441 10.7048 16.0437 12.1824 14.1639 14.4284C12.284 16.6724 11.25 19.5374 11.25 22.5C11.25 25.4626 12.284 28.3276 14.1639 30.5717C16.0437 32.8176 18.6441 34.2953 21.4935 34.7374C24.3429 35.1777 27.2531 34.5531 29.6921 32.9779C32.1311 31.4008 33.9411 28.978 34.7906 26.1461C34.8945 25.7961 35.0271 25.2065 34.3407 24.6833ZM33.5666 25.7574C32.8086 28.2834 31.1939 30.4445 29.0184 31.8503C26.8409 33.2561 24.2461 33.8106 21.705 33.4164C19.162 33.0221 16.8431 31.7048 15.1657 29.7002C13.4901 27.6975 12.5672 25.1421 12.5672 22.5C12.5672 19.8579 13.4901 17.3025 15.1657 15.2998C16.8431 13.2953 19.162 11.9779 21.705 11.5836C24.2461 11.1893 26.8409 11.7439 29.0184 13.1497C31.1939 14.5555 32.8086 16.7166 33.5666 19.2426C33.5666 19.2481 33.5702 19.2555 33.5737 19.261C33.2028 19.5374 32.3444 19.869 31.5774 20.103L31.5702 20.0882C31.461 19.81 31.3337 19.5374 31.1867 19.2775L29.9663 17.1035C29.4162 16.1252 28.6258 15.3108 27.6725 14.7453C26.7191 14.1796 25.6385 13.8812 24.5382 13.8812H22.0956C20.9952 13.8812 19.9146 14.1796 18.9613 14.7453C18.0097 15.3108 17.2176 16.1252 16.6674 17.1035L15.447 19.2775C14.8968 20.2578 14.6065 21.3687 14.6065 22.5C14.6065 23.6313 14.8968 24.7422 15.447 25.7225L16.6674 27.8965C17.2176 28.8748 18.0097 29.6892 18.9613 30.2547C19.9146 30.8204 20.9952 31.1188 22.0956 31.1188H24.5382C25.6385 31.1188 26.7191 30.8204 27.6725 30.2547C28.6258 29.6892 29.4162 28.8748 29.9663 27.8965L31.1867 25.7261C31.3337 25.4663 31.461 25.1936 31.5702 24.9154L31.5774 24.8988C31.5774 24.8988 31.5774 24.897 31.5792 24.8951H31.581C32.3013 25.0094 32.9842 25.2987 33.5737 25.739C33.5737 25.7445 33.5702 25.7519 33.5666 25.7574Z" fill="white"/>
<path d="M31.5774 20.1048C31.3033 20.1509 31.0255 20.1767 30.7459 20.1767C28.9198 20.1767 28.2353 19.5521 27.4432 18.8298C26.6779 18.1316 25.7263 17.2656 23.9935 17.2656H22.9576C21.705 17.2656 20.5651 17.7336 19.7515 18.5812C18.9559 19.4102 18.5168 20.5452 18.5168 21.776V23.2314C18.5168 24.4621 18.9559 25.5971 19.7515 26.4262C20.5669 27.2737 21.705 27.7417 22.9576 27.7417H23.9935C25.7263 27.7417 26.6779 26.8739 27.4432 26.1775C28.2353 25.4589 28.9216 24.8307 30.7459 24.8307C31.0237 24.8307 31.3033 24.8528 31.5774 24.8989C31.7351 24.4935 31.9663 23.4396 31.9465 23.53C31.5308 23.4913 31.1401 23.5096 30.7423 23.5096C26.5471 23.5096 26.7657 26.4226 23.9881 26.4226H22.9523C21.0455 26.4226 19.7928 25.0223 19.7928 23.2296V21.7703C19.7928 19.9796 21.0455 18.5793 22.9523 18.5793H23.9881C26.7657 18.5793 26.5471 21.4903 30.7423 21.4903C31.1401 21.4903 31.5362 21.4535 31.9268 21.3799V21.3596C31.8516 20.9303 31.7351 20.5083 31.5774 20.103V20.1048Z" fill="#0AE8F0"/>
</g>
</g>
<defs>
<clipPath id="clip0_3561_11837">
<rect width="45" height="45" rx="8" fill="white"/>
</clipPath>
</defs>
</svg>
