<svg width="45" height="45" viewBox="0 0 45 45" fill="none" xmlns="http://www.w3.org/2000/svg">
<g clip-path="url(#clip0_3561_11845)">
<mask id="mask0_3561_11845" style="mask-type:luminance" maskUnits="userSpaceOnUse" x="0" y="0" width="45" height="45">
<path d="M45 0H0V45H45V0Z" fill="white"/>
</mask>
<g mask="url(#mask0_3561_11845)">
<path d="M45 0H0V45H45V0Z" fill="#3E8DFF"/>
<path d="M12.375 32.625L14.1165 27.4008C13.2328 25.9146 12.7241 24.1801 12.7241 22.3254C12.7241 16.83 17.1791 12.375 22.6746 12.375C28.17 12.375 32.625 16.83 32.625 22.3254C32.625 27.8209 28.17 32.2759 22.6746 32.2759C21.0025 32.2759 19.428 31.8615 18.045 31.1331L12.375 32.625Z" fill="white"/>
<path d="M29.023 25.6372C28.5636 24.7689 26.8692 23.776 26.8692 23.776C26.4858 23.5574 26.0232 23.533 25.8046 23.9226C25.8046 23.9226 25.254 24.5828 25.1141 24.6778C24.4744 25.1111 23.8819 25.0944 23.2838 24.4962L20.5041 21.7164C19.9059 21.1184 19.8891 20.5259 20.3225 19.8862C20.4174 19.7462 21.0777 19.1957 21.0777 19.1957C21.4673 18.9767 21.4429 18.5145 21.2243 18.1311C21.2243 18.1311 20.2314 16.4367 19.3631 15.9773C18.9936 15.7817 18.5401 15.8502 18.2447 16.1456L17.6309 16.7594C15.6838 18.7065 16.6425 20.9046 18.5896 22.8518L22.1488 26.411C24.096 28.3581 26.2941 29.3168 28.2412 27.3697L28.855 26.7559C29.1504 26.4598 29.2185 26.0063 29.023 25.6372Z" fill="#3E8DFF"/>
</g>
</g>
<defs>
<clipPath id="clip0_3561_11845">
<rect width="45" height="45" rx="8" fill="white"/>
</clipPath>
</defs>
</svg>
