<svg width="45" height="45" viewBox="0 0 45 45" fill="none" xmlns="http://www.w3.org/2000/svg">
<g clip-path="url(#clip0_3561_11853)">
<mask id="mask0_3561_11853" style="mask-type:luminance" maskUnits="userSpaceOnUse" x="0" y="0" width="45" height="45">
<path d="M0 0H45V45H0V0Z" fill="white"/>
</mask>
<g mask="url(#mask0_3561_11853)">
<path fill-rule="evenodd" clip-rule="evenodd" d="M33.75 33.7289H29.0883V26.4347C29.0883 24.6938 29.0588 22.455 26.6653 22.455C24.2395 22.455 23.8697 24.3534 23.8697 26.3095V33.7289H19.2122V18.727H23.6812V20.7802H23.7459C24.3675 19.5989 25.8891 18.3544 28.1559 18.3544C32.8781 18.3544 33.75 21.4622 33.75 25.5009V33.7289ZM13.9542 16.6781C13.599 16.6785 13.2472 16.6088 12.9189 16.473C12.5907 16.3373 12.2924 16.1381 12.0412 15.8869C11.79 15.6357 11.5909 15.3375 11.4551 15.0092C11.3193 14.6809 11.2496 14.3291 11.25 13.9739C11.25 13.2569 11.5348 12.5692 12.0418 12.0622C12.5488 11.5552 13.2365 11.2704 13.9535 11.2704C14.6705 11.2704 15.3582 11.5552 15.8652 12.0622C16.3722 12.5692 16.657 13.2569 16.657 13.9739C16.657 14.6909 16.3723 15.3785 15.8655 15.8856C15.3586 16.3927 14.6712 16.6778 13.9542 16.6781ZM11.6198 33.7289H16.2872V18.727H11.6198V33.7289ZM0 45H45V0H0V45Z" fill="#3E8DFF"/>
</g>
</g>
<defs>
<clipPath id="clip0_3561_11853">
<rect width="45" height="45" rx="8" fill="white"/>
</clipPath>
</defs>
</svg>
