<svg width="45" height="45" viewBox="0 0 45 45" fill="none" xmlns="http://www.w3.org/2000/svg">
<g clip-path="url(#clip0_3561_11859)">
<path d="M0 0V44.6697H44.6697V0H0ZM32.945 15.3165L24.0275 30.0138C23.8624 30.2615 23.6147 30.4679 23.3257 30.5092C23.2431 30.5092 23.1606 30.5505 23.1193 30.5505C22.9128 30.5505 22.6651 30.4679 22.5 30.344L20.3945 28.8991L18.2477 30.3028C17.9587 30.5092 17.5872 30.5092 17.2982 30.344C17.0092 30.1789 16.8028 29.8899 16.8028 29.5183V26.2156C16.8028 25.9266 16.9266 25.6789 17.1743 25.5138L21.922 21.9633L15.8119 25.1835C15.5229 25.3486 15.1514 25.3073 14.9037 25.1422L12.0963 23.2431C11.7661 22.9954 11.5596 22.6239 11.6422 22.211C11.6835 21.7982 11.9725 21.4679 12.344 21.3028L31.9954 14.2018C32.2844 14.078 32.656 14.2018 32.8624 14.4495C33.0688 14.6972 33.1101 15.0275 32.945 15.3165Z" fill="#3E8DFF"/>
</g>
<defs>
<clipPath id="clip0_3561_11859">
<rect width="45" height="45" rx="8" fill="white"/>
</clipPath>
</defs>
</svg>
