<svg width="68" height="77" viewBox="0 0 68 77" fill="none" xmlns="http://www.w3.org/2000/svg">
<mask id="mask0_4802_7758" style="mask-type:alpha" maskUnits="userSpaceOnUse" x="2" y="32" width="55" height="44">
<path fill-rule="evenodd" clip-rule="evenodd" d="M29.9665 75.9625C42.3458 62.2417 57 57.9971 57 45.9994C57 37.1828 50.1305 32.0508 43.5091 32.0508C36.8879 32.0508 31.3632 34.6425 29.9665 39.7398C28.5699 34.6425 23.0452 32.0508 16.4238 32.0508C9.80258 32.0508 2.93286 37.1828 2.93286 45.9994C2.93286 57.9971 17.5873 62.2417 29.9665 75.9625Z" fill="#042E77"/>
</mask>
<g mask="url(#mask0_4802_7758)">
<rect x="3" y="33" width="52" height="43" fill="#0273ED"/>
</g>
<path fill-rule="evenodd" clip-rule="evenodd" d="M30.594 75.8774C37.7068 68.0123 51.5 58.5 55.5 50.5C49 49 46.9186 43.5555 44 39.5C44.8583 38.5755 44.1488 38.9549 45.5 37.5C47.9952 34.8124 46.822 33.663 43.6055 29.7354L30.594 38.6784L30.6008 49.5464C30.6008 49.5464 23.0605 55.3431 13.719 61.2828C18.7829 65.2597 24.9204 69.6042 30.594 75.8774Z" fill="#FED108"/>
<path fill-rule="evenodd" clip-rule="evenodd" d="M42.8905 61.1451L44.2482 63.9134L45.6613 62.5452L42.8905 61.1451Z" fill="#042E77"/>
<path fill-rule="evenodd" clip-rule="evenodd" d="M29.9156 50.2487L33.8952 52.6747L31.286 48.8389L29.9156 50.2487Z" fill="#042E77"/>
<path fill-rule="evenodd" clip-rule="evenodd" d="M24.7367 70.2944C26.2455 68.825 27.5696 67.3845 28.6345 66.0618C30.775 63.4031 31.9113 61.3929 31.9113 61.3929C31.9113 61.3929 30.3571 63.0601 27.812 65.2905C26.5697 66.3791 25.1182 67.6065 23.4568 68.8037L24.7367 70.2944Z" fill="#042E77"/>
<path fill-rule="evenodd" clip-rule="evenodd" d="M28.7966 76.688C28.9755 76.8865 29.2313 77 29.5 77C29.7687 77 30.0245 76.8865 30.2034 76.688C37.4803 68.6237 45.5641 63.906 50.8632 58.8794C54.6063 55.3293 57 51.616 57 46.6354C57 37.3724 49.7613 32 42.8037 32C36.8376 32 31.7709 34.0886 29.5 38.0469C27.2291 34.0886 22.1624 32 16.1966 32C9.23875 32 2 37.3724 2 46.6354C2 51.616 4.39373 55.3293 8.13675 58.8794C13.4359 63.906 21.5197 68.6237 28.7966 76.688ZM29.5 74.6746C23.5792 68.3239 17.2162 64.0587 12.2632 59.9951C7.38946 55.9964 3.88718 52.2453 3.88718 46.6354C3.88718 38.579 10.145 33.8701 16.1966 33.8701C22.2191 33.8701 27.3191 36.0967 28.5895 40.7323C28.7009 41.1396 29.0741 41.4222 29.5 41.4222C29.9259 41.4222 30.2991 41.1396 30.4105 40.7323C31.6812 36.0967 36.7809 33.8701 42.8037 33.8701C48.855 33.8701 55.1128 38.579 55.1128 46.6354C55.1128 52.2453 51.6105 55.9964 46.7368 59.9951C41.7838 64.0587 35.4211 68.3239 29.5 74.6746Z" fill="#042E77"/>
<path fill-rule="evenodd" clip-rule="evenodd" d="M42.0522 21.8312C40.2292 22.0635 38.4251 21.2837 37.3593 19.803C35.5875 17.3412 33.0925 13.874 33.0925 13.874L28.1089 17.3802C28.1089 17.3802 30.6041 20.8474 32.3757 23.3092C33.4415 24.7898 33.5953 26.7306 32.7761 28.3577C31.9569 29.9844 32.1103 31.9255 33.1761 33.4064C37.4578 39.3564 48.5088 54.7117 52.8055 60.6817C53.7692 62.0209 55.6485 62.3341 57.003 61.3813C59.4577 59.6542 63.2128 57.0123 65.6674 55.2852C67.0219 54.3324 67.3387 52.4742 66.375 51.135C62.0783 45.165 51.0273 29.8097 46.7456 23.8597C45.6798 22.3788 43.8751 21.5992 42.0522 21.8312Z" fill="#0273ED"/>
<path fill-rule="evenodd" clip-rule="evenodd" d="M41.926 20.8618C40.4649 21.048 39.0191 20.4231 38.1652 19.2362C36.3934 16.7744 33.8981 13.3075 33.8981 13.3075C33.5817 12.8674 32.9643 12.7647 32.5191 13.0776L27.5358 16.5837C27.0907 16.8969 26.9868 17.5073 27.3033 17.9472C27.3033 17.9472 29.7985 21.4143 31.5704 23.8762C32.4242 25.0628 32.5475 26.6181 31.891 27.9219C30.9091 29.8719 31.093 32.1985 32.3705 33.9734C36.6525 39.9233 47.7032 55.2786 51.9998 61.249C53.2803 63.028 55.777 63.4439 57.5764 62.1779C60.031 60.4511 63.7864 57.8089 66.2411 56.0821C68.0404 54.8161 68.461 52.3475 67.1806 50.5684C62.8842 44.5984 51.8333 29.2428 47.5512 23.2932C46.274 21.5183 44.1114 20.5834 41.926 20.8618ZM42.1786 22.8011C43.6394 22.6151 45.0858 23.24 45.94 24.4267L65.5693 51.7019C66.2166 52.6013 66.0037 53.8491 65.0943 54.4887C62.6397 56.2158 58.8846 58.8577 56.4297 60.5848C55.5203 61.2248 54.2583 61.0143 53.6111 60.1152L33.9817 32.8399C33.1279 31.653 33.0046 30.0977 33.6611 28.7939C34.643 26.8439 34.4588 24.5173 33.1816 22.7424L29.488 17.6101L32.8601 15.2377L36.5537 20.37C37.8312 22.1449 39.9935 23.0795 42.1786 22.8011Z" fill="#042E77"/>
<path fill-rule="evenodd" clip-rule="evenodd" d="M26.0002 2.49226C29.042 1.81141 32.338 2.94535 34.2562 5.61873C36.6452 8.94855 36.0542 13.4924 33.0162 16.1272L32.3762 16.6276C28.7142 19.3174 25.3007 20.6869 17.9566 20.6869C11.3036 20.6869 2.30518 16.6179 2.30518 5.63679C4.83882 10.8373 8.45764 10.8014 11.0056 10.8014C16.0605 10.8014 18.7682 7.81094 21.5345 5.26915C21.9823 4.70278 22.5208 4.19379 23.1417 3.75681C23.4719 3.52441 23.814 3.32032 24.1694 3.1531L24.2281 3.11282C24.8248 2.73516 25.418 2.5362 26.0002 2.49226Z" fill="#FF5900"/>
<path fill-rule="evenodd" clip-rule="evenodd" d="M24.3758 6.94282C26.9716 5.1189 30.5769 5.72166 32.4219 8.28825C34.2666 10.8551 33.657 14.4197 31.0608 16.2437C28.465 18.0676 24.8597 17.4648 23.015 14.8982C21.17 12.3316 21.7799 8.76674 24.3758 6.94282Z" fill="#DD0100"/>
<path fill-rule="evenodd" clip-rule="evenodd" d="M54.9584 30.4649C53.9711 29.0932 52.0457 28.7723 50.6584 29.7485C47.2547 32.1433 41.5981 36.1229 41.5981 36.1229C41.5981 36.1229 47.9258 44.9152 50.3413 48.2717C50.9196 49.0754 51.8559 49.5527 52.8533 49.5527C54.6577 49.5527 57.5446 49.5527 59.0496 49.5527C59.6906 49.5527 60.3151 49.3556 60.8373 48.9881C61.4723 48.5414 62.3951 47.8923 63.2719 47.2754C64.6596 46.2993 64.9838 44.3956 63.9965 43.0239C61.5968 39.6893 57.3581 33.7995 54.9584 30.4649Z" fill="#FED108"/>
<path fill-rule="evenodd" clip-rule="evenodd" d="M55.7639 29.8984C54.4601 28.0865 51.9177 27.663 50.0853 28.952C46.6815 31.3468 41.0247 35.3264 41.0247 35.3264C40.5799 35.6396 40.4757 36.2501 40.7924 36.6899C40.7924 36.6899 47.1201 45.4824 49.5356 48.8389C50.2996 49.9004 51.5359 50.5309 52.8534 50.5309C54.6578 50.5309 57.5447 50.5309 59.0497 50.5309C59.896 50.5309 60.7212 50.27 61.4106 49.785C62.0456 49.3384 62.9684 48.6893 63.8455 48.072C65.6777 46.783 66.1064 44.2692 64.8023 42.4574L55.7639 29.8984ZM54.1526 31.0319L63.1911 43.5909C63.8616 44.5228 63.6413 45.816 62.6988 46.479L60.2642 48.1919C59.9095 48.4413 59.4849 48.5753 59.0497 48.5753H52.8537C52.1757 48.5753 51.5401 48.2512 51.1469 47.7051L42.9772 36.3528L51.2317 30.5454C52.1742 29.8821 53.4818 30.1 54.1526 31.0319Z" fill="#042E77"/>
<path fill-rule="evenodd" clip-rule="evenodd" d="M13.719 61.2818C23.0605 55.3422 30.6008 49.5454 30.6008 49.5454L30.594 38.6775L43.6055 29.7344C46.822 33.662 46.2091 36.8391 43.7139 39.5267C41.2183 42.214 38.3935 45.2561 38.3935 45.2561" fill="#FED108"/>
<path fill-rule="evenodd" clip-rule="evenodd" d="M14.2538 62.1045C17.3992 60.1189 20.3423 58.1491 22.8653 56.4058C27.8857 52.9368 31.2461 50.3664 31.2461 50.3664C31.5025 50.1692 31.6524 49.8664 31.6521 49.5452L31.6649 39.2319L43.3751 31.1764C44.2618 32.4312 44.7042 33.5898 44.7594 34.682C44.8377 36.2237 44.137 37.5969 42.9822 38.8629C42.6442 39.2531 42.2908 39.6422 41.9585 40.0454C41.6199 40.4563 41.2957 40.8675 40.9912 41.279C40.4768 41.975 40.0251 42.6288 39.6394 43.2195C38.8473 44.4318 38.3935 45.2561 38.3935 45.2561C38.3935 45.2561 39.1859 44.7394 40.3401 43.8556C40.9025 43.4252 41.5229 42.9246 42.1803 42.3584C42.569 42.0234 42.9559 41.6689 43.3411 41.3002C43.719 40.9386 44.0808 40.5573 44.4454 40.1912C46.0235 38.5217 46.9185 36.6603 46.8412 34.5922C46.7785 32.9141 46.0596 31.0752 44.4331 29.0721C44.082 28.6432 43.4557 28.5552 42.9974 28.8702L29.9826 37.8079C29.6942 38.006 29.5223 38.3313 29.5226 38.6784L29.5485 49.0369C28.5207 49.8188 25.6206 52.0008 21.6893 54.7525C19.1971 56.4967 16.2913 58.4703 13.1841 60.4601L14.2538 62.1045Z" fill="#042E77"/>
</svg>
