<svg width="209" height="31" viewBox="0 0 209 31" fill="none" xmlns="http://www.w3.org/2000/svg">
<path d="M17.2758 30.6327L9.677 17.3185H24.9071L17.2758 30.6327Z" fill="#383838"/>
<path d="M24.9071 17.3186H9.677L17.2758 4.00439L24.9071 17.3186Z" fill="black"/>
<path d="M19.3542 0.36731H34.5843L24.9072 17.3185L17.3083 4.00435L19.3542 0.36731Z" fill="#383838"/>
<path d="M15.1976 0.36731L17.2759 4.00435L9.67713 17.3185L0 0.36731H15.1976Z" fill="#383838"/>
<path d="M111.904 16.5392V16.2794C111.904 11.0836 115.606 7.60895 120.12 7.60895C123.659 7.60895 126.939 9.23262 127.459 13.5516H124.796C124.374 10.8563 122.425 9.84962 120.087 9.84962C117.002 9.84962 114.632 12.3176 114.632 16.3119V16.5717C114.632 20.7283 116.905 22.9365 120.185 22.9365C122.588 22.9365 124.764 21.5401 125.056 18.7799H127.556C127.199 22.4494 124.244 25.1772 120.185 25.1772C115.476 25.1447 111.904 21.7999 111.904 16.5392Z" fill="black"/>
<path d="M129.927 7.90121H132.622V10.9537C133.694 9.03778 135.155 7.70637 138.208 7.60895V10.1419C134.798 10.3043 132.622 11.3759 132.622 15.565V24.8524H129.927V7.90121Z" fill="black"/>
<path d="M138.662 16.5392V16.2794C138.662 11.1486 141.942 7.60895 146.586 7.60895C150.515 7.60895 154.217 9.97952 154.217 16.0196V16.8964H141.455C141.585 20.7608 143.436 22.904 146.91 22.904C149.541 22.904 151.067 21.9298 151.424 19.9489H154.12C153.535 23.3586 150.71 25.1447 146.91 25.1447C142.072 25.1447 138.662 21.7674 138.662 16.5392ZM151.457 14.7207C151.197 11.2135 149.378 9.81715 146.586 9.81715C143.825 9.81715 141.974 11.7006 141.52 14.7207H151.457Z" fill="black"/>
<path d="M178.15 20.5983V10.1743H175.715V7.90116H178.15V4.0368H180.845V7.90116H184.807V10.1743H180.845V20.3385C180.845 21.9947 181.592 22.8065 182.956 22.8065C183.801 22.8065 184.45 22.6766 185.035 22.4493V24.7225C184.482 24.9173 183.833 25.0797 182.729 25.0797C179.644 25.0797 178.15 23.2612 178.15 20.5983Z" fill="black"/>
<path d="M185.879 16.5392V16.2794C185.879 11.1486 189.159 7.60895 193.802 7.60895C197.732 7.60895 201.434 9.97952 201.434 16.0196V16.8964H188.672C188.802 20.7608 190.653 22.904 194.127 22.904C196.758 22.904 198.284 21.9298 198.641 19.9489H201.336C200.752 23.3586 197.927 25.1447 194.127 25.1447C189.289 25.1447 185.879 21.7674 185.879 16.5392ZM198.674 14.7207C198.414 11.2135 196.595 9.81715 193.802 9.81715C191.042 9.81715 189.191 11.7006 188.737 14.7207H198.674Z" fill="black"/>
<path d="M48.1907 19.9814L44.1316 7.83624H39.0981L45.3006 24.8199H50.5938L56.7638 7.83624H52.2175L48.1907 19.9814Z" fill="black"/>
<path d="M72.5461 14.266C70.0781 13.9088 69.2663 13.4866 69.2663 12.415C69.2663 11.3758 70.1431 10.6614 71.6693 10.6614C72.4812 10.6614 73.0657 10.8238 73.5203 11.1485C73.9425 11.4733 74.2023 11.9928 74.3322 12.7073H78.6511C78.229 8.81043 75.4038 7.44653 71.6368 7.44653C68.1622 7.44653 64.9148 9.2001 64.9148 12.7397C64.9148 16.052 66.6684 17.351 71.1822 18.0329C73.6177 18.3901 74.6244 18.8772 74.6244 20.0463C74.6244 21.2153 73.7801 21.8973 71.9616 21.8973C70.9549 21.8973 70.2405 21.67 69.7859 21.2803C69.3312 20.8581 69.0714 20.2736 68.974 19.4942H64.5901C64.7525 23.1638 67.4153 25.1771 71.9941 25.1771C76.4754 25.1771 79.1383 23.2612 79.1383 19.5917C79.1383 15.9546 76.8002 14.883 72.5461 14.266Z" fill="black"/>
<path d="M86.4122 19.3968V11.181H89.9843V7.83622H86.4122V4.0368H81.736V7.83622H79.5603V11.181H81.736V19.819C81.736 23.3586 83.652 25.1446 87.1916 25.1446C88.4581 25.1446 89.3998 24.9173 90.0493 24.69V21.053C89.4972 21.2803 88.9776 21.3777 88.2632 21.3777C87.0942 21.4102 86.4122 20.7607 86.4122 19.3968Z" fill="black"/>
<path d="M104.468 10.3692C103.721 9.03774 101.87 7.44653 98.8171 7.44653C94.1085 7.44653 90.439 10.9862 90.439 16.2794C90.439 21.0205 93.4265 25.1446 98.8171 25.1446C101.155 25.1446 103.396 24.2354 104.468 22.2545V24.7874H108.787V7.83622H104.468V10.3692ZM104.565 16.6041C104.5 17.4484 104.24 18.2602 103.753 19.0071C103.006 20.1762 101.74 21.1179 99.6615 21.1179C96.1543 21.1179 94.7904 18.1303 94.7904 16.4092V16.3768C94.7904 14.2335 96.2842 11.5382 99.629 11.5382C102.097 11.5382 103.428 12.8696 104.078 14.1361C104.435 14.9155 104.63 15.7598 104.565 16.6041Z" fill="black"/>
<path d="M63.0636 7.83624H58.4199V24.8199H63.0636V7.83624Z" fill="black"/>
<path d="M60.4657 0.984315C59.2317 1.11421 58.2575 2.08841 58.1276 3.32241C57.9653 4.97856 59.3292 6.34246 60.9853 6.18009C62.2193 6.05019 63.1935 5.07598 63.3234 3.84199C63.4858 2.21831 62.0894 0.821947 60.4657 0.984315Z" fill="black"/>
<path d="M170.779 24.8524V22.2545C169.22 24.0731 167.239 25.1772 164.771 25.1772C159.445 25.1772 156.003 21.4752 156.003 16.3443C156.003 11.246 159.575 7.64142 164.349 7.64142C167.401 7.64142 169.74 8.90788 170.779 10.8238V7.93368H173.474V24.8849H170.779V24.8524ZM164.771 9.88209C161.134 9.88209 158.763 12.6099 158.763 16.182C158.763 20.1113 161.102 22.904 164.771 22.904C168.408 22.904 170.811 20.0463 170.811 16.182C170.811 12.5774 168.408 9.88209 164.771 9.88209Z" fill="black"/>
<path d="M204.486 22.839H203.674V22.4818H205.753V22.839H204.941V25.1446H204.486V22.839ZM206.24 22.4818H206.889L207.636 24.3653L208.351 22.4818H209V25.1446H208.545V23.0663L207.701 25.1446H207.539L206.662 23.0663V25.1446H206.24V22.4818Z" fill="black"/>
</svg>
