<svg width="170" height="33" viewBox="0 0 170 33" fill="none" xmlns="http://www.w3.org/2000/svg">
<path d="M105.254 19.7857C106.887 19.7857 108.254 18.419 108.254 16.7857C108.254 15.1524 106.887 13.7857 105.254 13.7857C103.621 13.7857 102.254 15.1524 102.254 16.7857C102.254 18.419 103.621 19.7857 105.254 19.7857Z" fill="#383838"/>
<path d="M163.577 7.75558C161.177 7.75558 159.621 8.65718 158.675 10.0428C157.729 8.58688 156.241 7.75558 154.246 7.75558C151.982 7.75558 150.494 8.65718 149.716 9.83458V8.24088H144.646V25.568H149.716V15.796C149.716 13.7507 150.663 12.5382 152.354 12.5382C153.976 12.5382 154.788 13.6466 154.788 15.3796V25.568H159.858V15.796C159.858 13.7507 160.805 12.5382 162.495 12.5382C164.117 12.5382 164.928 13.6466 164.928 15.3796V25.568H170V14.9295C170 10.597 167.464 7.75558 163.577 7.75558ZM134.167 20.9936C131.968 20.9936 130.278 19.3647 130.278 16.9044C130.278 14.4442 131.968 12.8153 134.167 12.8153C136.363 12.8153 138.054 14.4442 138.054 16.9044C138.054 19.3647 136.363 20.9936 134.167 20.9936ZM134.167 7.75558C129.197 7.75558 125.208 11.7406 125.208 16.9044C125.208 22.0683 129.197 26.0533 134.167 26.0533C139.135 26.0533 143.124 22.0683 143.124 16.9044C143.124 11.7406 139.135 7.75558 134.167 7.75558Z" fill="black"/>
<path d="M118.012 21.2356C115.815 21.2356 114.193 19.6067 114.193 17.2154C114.193 14.8241 115.815 13.1952 118.012 13.1952C119.5 13.1952 120.717 13.9238 121.292 15.1364L125.721 12.5017C124.267 9.83328 121.359 8.06648 118.081 8.06648C112.942 8.06648 109.122 12.0516 109.122 17.2154C109.122 22.3792 112.942 26.3643 118.081 26.3643C121.393 26.3643 124.267 24.5961 125.721 21.8939L121.292 19.2944C120.751 20.507 119.5 21.2356 118.012 21.2356ZM84.3083 21.4438C81.9755 21.4438 80.285 19.8149 80.285 17.2154C80.285 14.6159 81.9755 12.987 84.3083 12.987C86.641 12.987 88.3315 14.6159 88.3315 17.2154C88.3315 19.8149 86.641 21.4438 84.3083 21.4438ZM88.3315 10.1807C87.2159 8.86408 85.5597 8.06648 83.2942 8.06648C78.8661 8.06648 75.2147 12.0516 75.2147 17.2154C75.2147 22.3792 78.8661 26.3643 83.2942 26.3643C85.5597 26.3643 87.2159 25.5667 88.3315 24.2501V25.879H93.402V8.55178H88.3315V10.1807ZM71.3945 3.70023L66.3243 5.2588V8.55178H63.6197V13.5426H66.3243V19.6756C66.3243 24.5272 68.2508 26.5725 74.8772 25.879V21.1667C72.646 21.3045 71.3945 21.1667 71.3945 19.6756V13.5426H74.8772V8.55178H71.3945V3.70023Z" fill="black"/>
<path d="M57.1368 25.568H62.2071V8.24078H57.1368V25.568Z" fill="black"/>
<path d="M95.763 25.568H100.833V0.5L95.763 2.08386V25.568Z" fill="black"/>
<path d="M46.5228 21.1314C44.1887 21.1314 42.4968 19.5025 42.4968 16.9058C42.4968 14.3035 44.1887 12.6788 46.5228 12.6788C48.8528 12.6788 50.5447 14.3035 50.5447 16.9058C50.5447 19.5025 48.8528 21.1314 46.5228 21.1314ZM47.5369 7.75698C45.27 7.75698 43.6138 8.55168 42.4968 9.86838V8.24228H37.4266V32.5H42.4968V23.9377C43.6138 25.2543 45.27 26.0533 47.5369 26.0533C51.9663 26.0533 55.615 22.0669 55.615 16.9058C55.615 11.7392 51.9663 7.75698 47.5369 7.75698ZM25.9674 21.1328C23.636 21.1328 21.9455 19.5039 21.9455 16.9044C21.9455 14.3049 23.636 12.676 25.9674 12.676C28.3001 12.676 29.9907 14.3049 29.9907 16.9044C29.9907 19.5039 28.3001 21.1328 25.9674 21.1328ZM29.9907 9.86978C28.8751 8.55308 27.2188 7.75558 24.9533 7.75558C20.5253 7.75558 16.8739 11.7406 16.8739 16.9044C16.8739 22.0683 20.5253 26.0533 24.9533 26.0533C27.2188 26.0533 28.8751 25.2557 29.9907 23.9391V25.568H35.0623V8.24088H29.9907V9.86978ZM8.8904 12.8842C10.3779 12.8842 11.595 13.6129 12.17 14.8254L16.5981 12.1907C15.1449 9.52228 12.2372 7.75558 8.9577 7.75558C3.8202 7.75558 0 11.7406 0 16.9044C0 22.0683 3.8202 26.0533 8.9577 26.0533C12.2715 26.0533 15.1449 24.2852 16.5981 21.583L12.17 18.9835C11.6293 20.196 10.3779 20.9247 8.8904 20.9247C6.6936 20.9247 5.0703 19.2958 5.0703 16.9044C5.0703 14.5131 6.6936 12.8842 8.8904 12.8842Z" fill="black"/>
<path d="M59.7328 6.94948C61.389 6.94948 62.7749 5.52736 62.7749 3.82952C62.7749 2.13169 61.389 0.71097 59.7328 0.71097C58.0765 0.71097 56.6906 2.13169 56.6906 3.82952C56.6906 5.52736 58.0765 6.94948 59.7328 6.94948Z" fill="black"/>
</svg>
